<svg width="30" height="35" viewBox="0 0 30 35" fill="none" xmlns="http://www.w3.org/2000/svg">
<path d="M2.72926 31.2041L0 0H30L27.2671 31.1991L14.9818 34.6698L2.72926 31.2041Z" fill="#1572B6"/>
<path d="M15 32.0184L24.9279 29.2138L27.2634 2.55273H15V32.0184Z" fill="#33A9DC"/>
<path d="M15 13.8576H19.97L20.3127 9.93863H15V6.11133H15.0134H24.4175L24.3276 7.1378L23.4053 17.6849H15V13.8576Z" fill="white"/>
<path d="M15.0232 23.7945L15.0062 23.7994L10.8236 22.6479L10.5563 19.5957H8.52333H6.78564L7.31181 25.6047L15.005 27.7815L15.0232 27.7765V23.7945Z" fill="#EBEBEB"/>
<path d="M19.6505 17.5215L19.1984 22.6464L15.0098 23.798V27.78L22.7091 25.6057L22.7662 24.9594L23.4187 17.5215H19.6505Z" fill="white"/>
<path d="M15.0135 6.11133V8.48869V9.92872V9.93863H5.95325H5.94109L5.86575 9.07807L5.69441 7.1378L5.60449 6.11133H15.0135Z" fill="#EBEBEB"/>
<path d="M14.9999 13.8574V16.2348V17.6748V17.6847H10.8817H10.8696L10.7942 16.8242L10.6241 14.8839L10.5342 13.8574H14.9999Z" fill="#EBEBEB"/>
</svg>
