<svg width="23" height="35" viewBox="0 0 23 35" fill="none" xmlns="http://www.w3.org/2000/svg">
<path d="M17.25 23.1132C20.4256 23.1132 23 20.5262 23 17.3349C23 14.1437 20.4256 11.5566 17.25 11.5566C14.0744 11.5566 11.5 14.1437 11.5 17.3349C11.5 20.5262 14.0744 23.1132 17.25 23.1132Z" fill="#19BCFE"/>
<path fill-rule="evenodd" clip-rule="evenodd" d="M5.75 34.6699C8.92564 34.6699 11.5 32.0829 11.5 28.8916C11.5 28.0204 11.5 26.0943 11.5 23.1133C8.91687 23.1133 7.0002 23.1133 5.75 23.1133C2.57436 23.1133 0 25.7003 0 28.8916C0 32.0829 2.57436 34.6699 5.75 34.6699Z" fill="#09CF83"/>
<path fill-rule="evenodd" clip-rule="evenodd" d="M5.75 23.1132C6.80855 23.1132 8.72521 23.1132 11.5 23.1132V11.5566C8.72521 11.5566 6.80855 11.5566 5.75 11.5566C2.57436 11.5566 0 14.1437 0 17.3349C0 20.5262 2.57436 23.1132 5.75 23.1132Z" fill="#A259FF"/>
<path fill-rule="evenodd" clip-rule="evenodd" d="M5.75 11.5566C6.80855 11.5566 8.72521 11.5566 11.5 11.5566V0C8.72521 0 6.80855 0 5.75 0C2.57436 0 0 2.58703 0 5.7783C0 8.96957 2.57436 11.5566 5.75 11.5566Z" fill="#F24E1E"/>
<path fill-rule="evenodd" clip-rule="evenodd" d="M17.25 11.5566H11.5V0H17.25C20.4256 0 23 2.58703 23 5.7783C23 8.96957 20.4256 11.5566 17.25 11.5566Z" fill="#FF7262"/>
</svg>
