<svg width="39" height="18" viewBox="0 0 39 18" fill="none" xmlns="http://www.w3.org/2000/svg">
<path d="M23.3728 6.53079C22.5177 6.53079 21.8808 6.95614 21.8808 7.97982C21.8808 8.7511 22.3005 9.28664 23.3267 9.28664C24.1965 9.28664 24.7873 8.76738 24.7873 7.94797C24.7873 7.01928 24.2586 6.53079 23.3728 6.53079ZM21.6631 13.7591C21.4608 14.0106 21.2591 14.278 21.2591 14.5934C21.2591 15.2228 22.0514 15.4122 23.1397 15.4122C24.0413 15.4122 25.2693 15.3482 25.2693 14.4991C25.2693 13.9943 24.6785 13.9632 23.932 13.9158L21.6631 13.7591ZM26.2639 6.57837C26.5432 6.94058 26.8389 7.44464 26.8389 8.16888C26.8389 9.91662 25.4866 10.9399 23.5287 10.9399C23.0308 10.9399 22.58 10.8772 22.3005 10.7985L21.7874 11.6329L23.3105 11.7271C25.9997 11.9008 27.5846 11.9797 27.5846 14.073C27.5846 15.8843 26.0151 16.9072 23.3105 16.9072C20.4973 16.9072 19.4248 16.183 19.4248 14.9391C19.4248 14.2304 19.7357 13.8534 20.2797 13.3329C19.7666 13.1132 19.5959 12.7197 19.5959 12.2943C19.5959 11.9477 19.7666 11.6329 20.0468 11.3334C20.3265 11.0347 20.6373 10.7351 21.0104 10.3888C20.2488 10.0109 19.6736 9.19202 19.6736 8.02668C19.6736 6.21616 20.855 4.97266 23.2326 4.97266C23.9011 4.97266 24.3054 5.03489 24.663 5.13006H27.6941V6.468L26.2639 6.57837Z" fill="#2F2707"/>
<path d="M30.4288 3.71714C29.5426 3.71714 29.0298 3.19716 29.0298 2.29923C29.0298 1.40256 29.5426 0.914062 30.4288 0.914062C31.3303 0.914062 31.8432 1.40256 31.8432 2.29923C31.8432 3.19716 31.3303 3.71714 30.4288 3.71714ZM28.4233 13.1797V11.9364L29.2163 11.8266C29.434 11.7947 29.4649 11.7477 29.4649 11.511V6.8817C29.4649 6.70892 29.4185 6.59819 29.2626 6.55133L28.4233 6.2519L28.5943 4.97692H31.812V11.511C31.812 11.7634 31.827 11.7947 32.0608 11.8266L32.8535 11.9364V13.1797H28.4233Z" fill="#2F2707"/>
<path d="M39 12.5707C38.3314 12.901 37.3523 13.2003 36.466 13.2003C34.6164 13.2003 33.9172 12.4453 33.9172 10.6652V6.53988C33.9172 6.44562 33.9172 6.38248 33.7924 6.38248H32.7046V4.98103C34.0728 4.82326 34.6164 4.13032 34.7873 2.41406H36.2641V4.65066C36.2641 4.76048 36.2641 4.80807 36.3886 4.80807H38.58V6.38248H36.2641V10.1455C36.2641 11.0746 36.482 11.4364 37.3209 11.4364C37.7566 11.4364 38.2069 11.3264 38.58 11.1848L39 12.5707Z" fill="#2F2707"/>
<path d="M15.97 8.43776L8.8632 1.23874C8.45422 0.824064 7.79039 0.824064 7.38088 1.23874L5.90516 2.73373L7.77718 4.63019C8.21223 4.48129 8.71104 4.58116 9.05787 4.93252C9.40631 5.28604 9.50418 5.79571 9.35362 6.23789L11.1578 8.0656C11.5943 7.91326 12.0979 8.01187 12.4465 8.36557C12.9337 8.85896 12.9337 9.65865 12.4465 10.1524C11.9591 10.6461 11.1697 10.6461 10.6822 10.1524C10.3157 9.78077 10.2252 9.23546 10.4107 8.77808L8.72819 7.07359L8.72801 11.5591C8.84677 11.6188 8.95893 11.6982 9.05787 11.7981C9.54507 12.2915 9.54507 13.0912 9.05787 13.5853C8.57049 14.0788 7.78075 14.0788 7.29408 13.5853C6.80688 13.0912 6.80688 12.2915 7.29408 11.7981C7.41445 11.6763 7.55375 11.5842 7.70234 11.5224V6.99507C7.55375 6.93355 7.41463 6.842 7.29408 6.71934C6.92493 6.34591 6.83617 5.79716 7.0253 5.33797L5.18007 3.46829L0.307137 8.40447C-0.102379 8.81952 -0.102379 9.49201 0.307137 9.9067L7.41392 17.1059C7.82307 17.5206 8.48673 17.5206 8.89642 17.1059L15.97 9.94017C16.3793 9.52531 16.3793 8.85244 15.97 8.43776Z" fill="#DE4C36"/>
</svg>
