<svg width="40" height="40" viewBox="0 0 40 40" fill="none" xmlns="http://www.w3.org/2000/svg">
<path d="M19.9275 30.1187C18.4476 30.1251 16.972 29.9603 15.53 29.6275C15.1013 29.5308 14.6809 29.4008 14.2725 29.2388L15.2887 30.975L15.6862 36.4C15.6862 37.0088 17.6187 37.5012 20.0012 37.5012C22.3837 37.5012 24.3162 37.0088 24.3162 36.4L24.6312 30.9163L25.5925 29.2337C25.1807 29.3984 24.7564 29.5301 24.3237 29.6275C22.8821 29.9602 21.4069 30.125 19.9275 30.1187ZM25.625 12.4662C23.7592 12.6983 21.8801 12.8073 20 12.7925C18.1198 12.8073 16.2408 12.6983 14.375 12.4662C13.7824 12.3944 13.1969 12.2723 12.625 12.1012C12.476 12.055 12.3317 11.9952 12.1937 11.9225L13.125 20.5C13.1683 20.3525 13.2166 20.205 13.27 20.0575C13.378 19.756 13.5032 19.4609 13.645 19.1737C13.7851 18.8925 13.9421 18.6199 14.115 18.3575C14.2781 18.1093 14.4585 17.8728 14.655 17.65C14.8329 17.4466 15.0296 17.2603 15.2425 17.0938C15.4291 16.9472 15.6337 16.8249 15.8512 16.73C16.0436 16.6475 16.2507 16.605 16.46 16.605C16.6972 16.6065 16.9296 16.6721 17.1325 16.795C17.379 16.9513 17.5867 17.1616 17.74 17.41C17.781 17.4675 17.8091 17.5331 17.8225 17.6025C17.8337 17.6631 17.8396 17.7246 17.84 17.7863C17.8464 17.9015 17.8119 18.0153 17.7425 18.1075C17.7156 18.1436 17.6808 18.173 17.6407 18.1934C17.6005 18.2138 17.5562 18.2246 17.5112 18.225C17.4663 18.2228 17.4225 18.2104 17.3831 18.1887C17.3436 18.1671 17.3097 18.1367 17.2837 18.1C17.1945 17.9844 17.1159 17.8609 17.0487 17.7313C16.985 17.607 16.8929 17.4996 16.78 17.4175C16.6859 17.3538 16.5748 17.3198 16.4612 17.32C16.2521 17.3312 16.052 17.4087 15.89 17.5413C15.6656 17.71 15.4636 17.9066 15.2887 18.1263C15.0767 18.3883 14.8857 18.6667 14.7175 18.9587C14.537 19.2681 14.3759 19.5883 14.235 19.9175C14.0997 20.2312 13.9882 20.5546 13.9012 20.885C13.8237 21.164 13.7817 21.4517 13.7762 21.7413C13.7765 21.8282 13.7824 21.915 13.7937 22.0013C13.8036 22.0848 13.8255 22.1665 13.8587 22.2438C13.8863 22.312 13.9291 22.3732 13.9837 22.4225C14.042 22.4704 14.1158 22.4953 14.1912 22.4925C14.3044 22.4873 14.4146 22.4547 14.5125 22.3975C14.645 22.3261 14.7706 22.2424 14.8875 22.1475C15.023 22.0385 15.1524 21.9221 15.275 21.7987C15.405 21.6696 15.5258 21.5383 15.6375 21.405C15.7491 21.2717 15.8483 21.1442 15.935 21.0225C16.0087 20.9218 16.0739 20.8152 16.13 20.7037L16.485 19.6413C16.5145 19.5424 16.5739 19.455 16.655 19.3912C16.7178 19.3452 16.7934 19.3199 16.8712 19.3188C16.9074 19.3188 16.9432 19.3247 16.9775 19.3363C17.0145 19.3485 17.0483 19.3689 17.0764 19.3959C17.1046 19.423 17.1263 19.456 17.14 19.4925C17.1575 19.5379 17.166 19.5863 17.165 19.635C17.1656 19.7718 17.1526 19.9083 17.1262 20.0425C17.1012 20.1693 17.0687 20.2946 17.0287 20.4175C16.9896 20.5383 16.9458 20.6596 16.8975 20.7812C16.8491 20.9029 16.8021 21.0304 16.7562 21.1637C16.7337 21.2095 16.7153 21.2572 16.7012 21.3063C16.6746 21.3896 16.6421 21.49 16.6037 21.6075C16.5654 21.725 16.5237 21.86 16.4787 22.0125L16.3412 22.4688C16.2937 22.6238 16.2487 22.7758 16.2062 22.925C16.1637 23.0742 16.125 23.2092 16.09 23.33L16.0037 23.6325C15.9812 23.7138 15.9662 23.7575 15.9612 23.7775C15.9457 23.8326 15.9252 23.8861 15.9 23.9375C15.8723 23.9962 15.8392 24.0523 15.8012 24.105C15.7658 24.1525 15.7237 24.1946 15.6762 24.23C15.6363 24.2627 15.5866 24.2812 15.535 24.2825C15.5009 24.2854 15.4667 24.2794 15.4356 24.2652C15.4045 24.2509 15.3776 24.2289 15.3575 24.2013C15.3124 24.1085 15.2934 24.0052 15.3025 23.9025V23.8387C15.3013 23.8163 15.3013 23.7937 15.3025 23.7713C15.3187 23.6789 15.3429 23.5881 15.375 23.5C15.4108 23.3675 15.4525 23.2175 15.5 23.05C15.5475 22.8825 15.6008 22.7092 15.66 22.53C15.7175 22.3508 15.7691 22.1904 15.815 22.0487C15.68 22.1996 15.5337 22.3496 15.3762 22.4988C15.2237 22.6435 15.0616 22.778 14.8912 22.9012C14.7348 23.0149 14.5673 23.1125 14.3912 23.1925C14.2394 23.264 14.074 23.3023 13.9062 23.305C13.7449 23.3094 13.5856 23.2687 13.4462 23.1875C13.4225 23.1737 13.4012 23.1575 13.38 23.1413L13.8987 28.5812C14.0337 28.92 16.5762 29.7513 19.93 29.7513C23.2837 29.7513 25.8287 28.9188 25.9612 28.58L26.7112 22.1125L26.5325 22.2775C26.3396 22.4585 26.1377 22.6295 25.9275 22.79C25.7563 22.9224 25.57 23.0341 25.3725 23.1225C25.1893 23.2014 24.9919 23.2414 24.7925 23.24C24.633 23.2506 24.4747 23.2065 24.3437 23.115C24.2917 23.0737 24.2503 23.0207 24.2227 22.9603C24.1951 22.8999 24.1822 22.8338 24.185 22.7675V22.7338C24.1839 22.7209 24.1839 22.7079 24.185 22.695C24.2027 22.5838 24.2431 22.4774 24.3037 22.3825C24.3794 22.2554 24.4629 22.1331 24.5537 22.0163C24.6504 21.8896 24.7533 21.7613 24.8625 21.6313C24.9716 21.5013 25.0729 21.3783 25.1662 21.2625C25.2491 21.1606 25.3263 21.0542 25.3975 20.9437C25.4483 20.875 25.4798 20.7938 25.4887 20.7087C25.4894 20.6924 25.4862 20.676 25.4795 20.6611C25.4727 20.6461 25.4627 20.6329 25.45 20.6225C25.4129 20.5986 25.3689 20.5876 25.325 20.5912C25.2153 20.593 25.1076 20.62 25.01 20.67C24.8945 20.7273 24.7866 20.7987 24.6887 20.8825C24.5783 20.9763 24.4751 21.0783 24.38 21.1875C24.2798 21.3018 24.1855 21.4211 24.0975 21.545C24.01 21.6683 23.93 21.7933 23.8575 21.92C23.785 22.0467 23.7233 22.1621 23.6725 22.2662L23.6075 22.4062C23.5791 22.4662 23.5487 22.5342 23.5162 22.61C23.4837 22.6858 23.4487 22.7633 23.4112 22.8425C23.3746 22.9258 23.3408 23.0013 23.31 23.0688L23.2275 23.2588C23.2033 23.3146 23.1862 23.3529 23.1762 23.3737C23.1662 23.3946 23.1454 23.4458 23.1137 23.5275C23.0846 23.6025 23.0508 23.6908 23.0125 23.7925L22.8875 24.1112L22.7687 24.4275L22.6712 24.69C22.6437 24.765 22.625 24.815 22.6175 24.8438C22.5929 24.9196 22.5628 24.9935 22.5275 25.065C22.4954 25.1308 22.4555 25.1925 22.4087 25.2487C22.366 25.2994 22.3143 25.3418 22.2562 25.3737C22.1972 25.4059 22.1309 25.4223 22.0637 25.4213C21.9829 25.4247 21.9031 25.4019 21.8362 25.3562C21.8027 25.3245 21.7771 25.2854 21.7615 25.242C21.7459 25.1985 21.7406 25.1521 21.7462 25.1062C21.7464 25.0439 21.7539 24.9818 21.7687 24.9213C21.7842 24.8577 21.8034 24.7951 21.8262 24.7338C21.8487 24.6713 21.8725 24.6088 21.8975 24.5525C21.9225 24.4963 21.9437 24.4375 21.9637 24.3825C22.1012 24.0808 22.2412 23.7788 22.3837 23.4763C22.5262 23.1738 22.6629 22.8738 22.7937 22.5763C22.8212 22.5138 22.8462 22.4513 22.8725 22.3925L22.8487 22.4163C22.6913 22.5677 22.5243 22.7088 22.3487 22.8387C22.1968 22.9533 22.033 23.0509 21.86 23.13C21.7123 23.1992 21.5517 23.2362 21.3887 23.2387C21.299 23.2415 21.2098 23.2245 21.1275 23.1888C21.0612 23.1584 21.0037 23.112 20.96 23.0538C20.9162 22.9928 20.8855 22.9234 20.87 22.85C20.87 22.8238 20.86 22.795 20.8562 22.7675C20.8112 22.8025 20.7662 22.8363 20.7212 22.8688C20.575 22.9734 20.4188 23.0634 20.255 23.1375C20.126 23.1995 19.9855 23.234 19.8425 23.2387C19.7868 23.2403 19.7315 23.23 19.6802 23.2085C19.6289 23.1869 19.5828 23.1546 19.545 23.1137C19.457 22.9938 19.4164 22.8455 19.4312 22.6975C19.4343 22.5345 19.4548 22.3723 19.4925 22.2137C19.4198 22.34 19.3362 22.4597 19.2425 22.5712C19.1415 22.6933 19.0275 22.804 18.9025 22.9012C18.7724 23.002 18.6284 23.0832 18.475 23.1425C18.3106 23.2054 18.1359 23.2367 17.96 23.235C17.8781 23.2354 17.7966 23.2249 17.7175 23.2037C17.6421 23.1836 17.5724 23.1464 17.5137 23.095C17.4513 23.0381 17.4029 22.9675 17.3725 22.8888C17.3337 22.7854 17.3154 22.6754 17.3187 22.565C17.3187 22.565 17.3187 22.5162 17.3337 22.4275C17.3559 22.2853 17.3885 22.1449 17.4312 22.0075C17.4862 21.8158 17.5696 21.5658 17.6812 21.2575C17.7929 20.9492 17.9546 20.58 18.1662 20.15C18.2053 20.0521 18.269 19.966 18.3512 19.9C18.4172 19.8514 18.4968 19.8252 18.5787 19.825C18.6164 19.8254 18.6538 19.8309 18.69 19.8413C18.7283 19.8518 18.7647 19.8687 18.7975 19.8913C18.8302 19.9137 18.8575 19.9432 18.8775 19.9775C18.899 20.0155 18.9094 20.0588 18.9075 20.1025C18.9077 20.1316 18.904 20.1607 18.8962 20.1887C18.8759 20.2586 18.8482 20.326 18.8137 20.39C18.7721 20.4733 18.7229 20.5683 18.6662 20.675C18.6096 20.7817 18.5504 20.8971 18.4887 21.0212C18.4262 21.1446 18.3683 21.2725 18.315 21.405C18.2616 21.5373 18.2157 21.6725 18.1775 21.81C18.1404 21.9404 18.1186 22.0746 18.1125 22.21C18.1121 22.2621 18.1255 22.3134 18.1512 22.3587C18.1636 22.3806 18.1819 22.3985 18.204 22.4105C18.2261 22.4224 18.2512 22.4279 18.2762 22.4263C18.4475 22.4244 18.6136 22.3674 18.75 22.2638C18.9068 22.1486 19.0469 22.0123 19.1662 21.8587C19.295 21.6949 19.4104 21.5211 19.5112 21.3387C19.6146 21.1537 19.7004 20.9842 19.7687 20.83C19.8179 20.723 19.8596 20.6127 19.8937 20.5C19.9296 20.3895 19.9713 20.281 20.0187 20.175C20.0559 20.0849 20.106 20.0006 20.1675 19.925C20.1925 19.8934 20.2245 19.8679 20.2609 19.8506C20.2973 19.8333 20.3372 19.8245 20.3775 19.825C20.4194 19.8235 20.4611 19.8321 20.499 19.8502C20.5368 19.8682 20.5698 19.8952 20.595 19.9288C20.6494 20.0005 20.6776 20.0887 20.675 20.1788C20.6702 20.2556 20.6529 20.3312 20.6237 20.4025C20.5896 20.4975 20.5479 20.6058 20.4987 20.7275C20.4496 20.8492 20.3929 20.9796 20.3287 21.1188C20.2679 21.2579 20.2112 21.3988 20.1587 21.5413C20.1098 21.679 20.068 21.8192 20.0337 21.9613C20.001 22.0862 19.9838 22.2146 19.9825 22.3438C19.9797 22.3662 19.9822 22.389 19.9897 22.4103C19.9972 22.4316 20.0095 22.4509 20.0258 22.4667C20.042 22.4824 20.0617 22.4942 20.0832 22.5011C20.1048 22.5079 20.1276 22.5097 20.15 22.5062C20.2525 22.5001 20.3526 22.4724 20.4437 22.425C20.5745 22.3623 20.6982 22.2856 20.8125 22.1962C20.845 22.1713 20.8775 22.1462 20.9087 22.12C20.9411 21.9811 20.9828 21.8445 21.0337 21.7112C21.1229 21.4762 21.2133 21.2425 21.305 21.01L21.555 20.3725L22.7112 17.4563C22.744 17.355 22.809 17.2672 22.8962 17.2063C22.9661 17.1604 23.0476 17.1352 23.1312 17.1337C23.2095 17.1336 23.2855 17.1606 23.3462 17.21C23.3809 17.2411 23.4078 17.28 23.4248 17.3234C23.4417 17.3668 23.4482 17.4136 23.4437 17.46C23.4428 17.5185 23.4318 17.5765 23.4112 17.6312C23.3871 17.6976 23.3595 17.7627 23.3287 17.8263C23.2654 17.9679 23.1896 18.1413 23.1012 18.3463C23.0129 18.5513 22.9187 18.7742 22.8187 19.015C22.7179 19.2558 22.615 19.5058 22.51 19.765L22.2012 20.5262C22.1012 20.7762 22.0071 21.0104 21.9187 21.2288L21.6912 21.805C21.6597 21.8844 21.6321 21.9653 21.6087 22.0475C21.5836 22.1285 21.5701 22.2127 21.5687 22.2975C21.5669 22.3351 21.5746 22.3725 21.5912 22.4062C21.6005 22.4206 21.6136 22.4321 21.6291 22.4394C21.6445 22.4467 21.6617 22.4495 21.6787 22.4475C21.7486 22.443 21.8167 22.4238 21.8787 22.3913C21.9689 22.3481 22.0558 22.2984 22.1387 22.2425C22.2321 22.1808 22.3287 22.11 22.4287 22.03C22.5287 21.95 22.6287 21.8667 22.7287 21.78C22.8279 21.6967 22.9229 21.6108 23.0137 21.5225C23.1046 21.4342 23.1854 21.355 23.2562 21.285C23.2729 21.2682 23.2929 21.255 23.315 21.2463C23.3575 21.1213 23.3975 20.9963 23.4312 20.8713C23.4512 20.8171 23.4791 20.74 23.515 20.64C23.5517 20.54 23.5934 20.442 23.64 20.3463C23.6817 20.2571 23.7337 20.1732 23.795 20.0962C23.8168 20.0672 23.8448 20.0435 23.8771 20.0268C23.9093 20.0102 23.9449 20.001 23.9812 20C24.0209 19.9964 24.0609 20.0007 24.0989 20.0127C24.1369 20.0248 24.1721 20.0442 24.2025 20.07C24.227 20.0981 24.2457 20.1308 24.2575 20.1662C24.2693 20.2016 24.274 20.239 24.2712 20.2763C24.2704 20.3051 24.2679 20.3339 24.2637 20.3625C24.2637 20.4013 24.2525 20.4437 24.245 20.4875C24.2375 20.5312 24.2287 20.5725 24.22 20.6125C24.2139 20.6419 24.2056 20.6707 24.195 20.6988C24.2891 20.5963 24.3908 20.4946 24.5 20.3938C24.6068 20.2947 24.7204 20.2033 24.84 20.12C24.9523 20.0414 25.0725 19.9748 25.1987 19.9213C25.3145 19.8716 25.439 19.8457 25.565 19.845C25.6496 19.8451 25.7338 19.8573 25.815 19.8813C25.8943 19.9037 25.9691 19.9397 26.0362 19.9875C26.1012 20.0341 26.1554 20.0942 26.195 20.1638C26.2375 20.24 26.2587 20.3264 26.2562 20.4137C26.2532 20.551 26.2213 20.686 26.1625 20.81C26.0962 20.9572 26.0176 21.0985 25.9275 21.2325C25.8333 21.3742 25.7316 21.5121 25.6225 21.6462C25.5133 21.7804 25.4108 21.9025 25.315 22.0125L25.0737 22.2925C25.0288 22.3364 24.9942 22.3898 24.9725 22.4487C24.9719 22.4818 24.9845 22.5137 25.0075 22.5375C25.04 22.5632 25.0812 22.5753 25.1225 22.5712C25.191 22.5624 25.2566 22.5376 25.3137 22.4988C25.4366 22.4233 25.5544 22.3398 25.6662 22.2487C25.8179 22.1296 26.01 21.97 26.2425 21.77C26.4025 21.6325 26.5887 21.4687 26.8 21.2825L27.81 11.9325C27.672 12.0052 27.5277 12.0651 27.3787 12.1113C26.8053 12.2791 26.2186 12.3979 25.625 12.4662ZM20 10.25C15.635 10.25 12.0975 10.7375 12.0975 11.34C12.0975 11.9425 15.625 12.4275 20 12.4275C24.375 12.4275 27.9025 11.94 27.9025 11.3375C27.9025 10.735 24.36 10.25 20 10.25ZM23.155 11.6587C23.155 11.8 22.735 11.9088 22.2162 11.9088C21.6975 11.9088 21.2775 11.7937 21.2775 11.6587C21.2775 11.5237 21.6975 11.4088 22.2162 11.4088C22.735 11.4088 23.1512 11.515 23.1512 11.6562L23.155 11.6587Z" fill="#DA4648"/>
<path d="M21.4625 11.5434C21.4579 11.5501 21.4553 11.5579 21.455 11.5659C21.455 11.6572 21.7938 11.7309 22.205 11.7309C22.6163 11.7309 22.955 11.6572 22.955 11.5659L23.9425 7.56592L27.87 3.41967C27.9525 3.32592 27.785 3.03467 27.505 2.78467C27.225 2.53467 26.9225 2.45092 26.8288 2.54592L22.6525 6.94967L21.4625 11.5434Z" fill="#DA4648"/>
</svg>
