<svg width="40" height="40" viewBox="0 0 40 40" fill="none" xmlns="http://www.w3.org/2000/svg">
<path d="M34.1335 7.8418L31.5583 36.6906L19.9827 39.8996L8.43898 36.695L5.86646 7.8418H34.1335Z" fill="#E44D26"/>
<path d="M20 37.4469L29.3537 34.8538L31.5542 10.2012H20V37.4469Z" fill="#F16529"/>
<path d="M14.9939 17.277H20V13.7383H11.1265L11.2112 14.6876L12.081 24.4394H20V20.9007H15.3173L14.9939 17.277ZM15.7915 26.2089H12.2391L12.7348 31.7652L19.9837 33.7774L20 33.773V30.0912L19.9845 30.0953L16.0434 29.0311L15.7915 26.2089Z" fill="#EBEBEB"/>
<path d="M8.4964 0H10.2947V1.77673H11.9398V0H13.7383V5.38039H11.9399V3.57873H10.2948V5.38039H8.49651V0H8.4964ZM16.103 1.78427H14.5201V0H19.4857V1.78427H17.9017V5.38039H16.1034V1.78427H16.1033H16.103ZM20.2737 0H22.1488L23.3023 1.89053L24.4546 0H26.3305V5.38039H24.5395V2.71357L23.3023 4.62659H23.2712L22.0332 2.71357V5.38039H20.2737V0ZM27.2255 0H29.0244V3.60199H31.5534V5.38039H27.2254V0H27.2255Z" fill="black"/>
<path d="M19.9878 24.4394H24.3453L23.9345 29.0289L19.9877 30.0942V33.7757L27.2423 31.7652L27.2955 31.1673L28.1272 21.851L28.2135 20.9007H19.9878V24.4394ZM19.9878 17.2684V17.277H28.5355L28.6064 16.4817L28.7677 14.6876L28.8523 13.7383H19.9878V17.2685V17.2684Z" fill="white"/>
</svg>
