<svg width="40" height="40" viewBox="0 0 40 40" fill="none" xmlns="http://www.w3.org/2000/svg">
<g clip-path="url(#clip0_1097_217)">
<path d="M40 0H0V40H40V0Z" fill="#F1DC50"/>
<path d="M20 18.334C20 26.2493 20 30.6938 20 31.6673C20 33.1276 19.1285 35.0007 16.6667 35.0007C12.691 35.0007 12.5 31.6673 12.5 31.6673M34.6499 22.5274C33.6498 20.8429 32.324 20.0007 30.6726 20.0007C28.0939 20.0007 26.6667 21.6673 26.6667 23.334C26.6667 25.0007 27.5 26.6673 30.8474 27.5007C32.9774 28.0309 35 29.1673 35 31.6673C35 34.1673 32.8076 35.0007 30.8333 35.0007C28.3103 35.0007 26.6436 33.8895 25.8333 31.6673" stroke="#333333" stroke-width="4"/>
</g>
<defs>
<clipPath id="clip0_1097_217">
<rect width="40" height="40" fill="white"/>
</clipPath>
</defs>
</svg>
