<svg width="40" height="40" viewBox="0 0 40 40" fill="none" xmlns="http://www.w3.org/2000/svg">
<g clip-path="url(#clip0_877_58)">
<mask id="mask0_877_58" style="mask-type:alpha" maskUnits="userSpaceOnUse" x="2" y="11" width="36" height="18">
<path d="M37.5369 25.2726C37.5369 27.0795 36.0231 28.5577 34.173 28.5577H5.89845C4.0483 28.5577 2.53455 27.0795 2.53455 25.2726V14.8105C2.53455 13.0038 4.0483 11.5254 5.89845 11.5254H34.173C36.0231 11.5254 37.5369 13.0038 37.5369 14.8105V25.2726Z" fill="white"/>
</mask>
<g mask="url(#mask0_877_58)">
<path d="M37.5369 25.2726C37.5369 27.0795 36.0231 28.5577 34.173 28.5577H5.89845C4.0483 28.5577 2.53455 27.0795 2.53455 25.2726V14.8105C2.53455 13.0038 4.0483 11.5254 5.89845 11.5254H34.173C36.0231 11.5254 37.5369 13.0038 37.5369 14.8105V25.2726Z" fill="url(#paint0_linear_877_58)"/>
</g>
<mask id="mask1_877_58" style="mask-type:alpha" maskUnits="userSpaceOnUse" x="0" y="11" width="40" height="18">
<path d="M0.00939941 11.4844H40V28.5944H0.00939941" fill="white"/>
</mask>
<g mask="url(#mask1_877_58)">
<path fill-rule="evenodd" clip-rule="evenodd" d="M38.2924 17.7241C38.2924 16.4433 38.4894 15.688 38.4894 14.3087C38.4894 12.1741 37.7011 11.4844 35.9607 11.4844H34.6799V12.995H35.0739C35.9607 12.995 36.1577 13.2906 36.1577 14.3744C36.1577 15.3923 36.0591 16.4105 36.0591 17.5928C36.0591 19.1034 36.5517 19.6945 37.5369 19.9244V20.023C36.5517 20.2528 36.0591 20.8441 36.0591 22.3547C36.0591 23.5369 36.1577 24.4894 36.1577 25.5731C36.1577 26.6897 35.9278 26.9852 35.0739 26.9852V27.018H34.6799V28.5944H35.9607C37.7011 28.5944 38.4894 27.9047 38.4894 25.7702C38.4894 24.358 38.2924 23.6355 38.2924 22.3547C38.2924 21.665 38.7192 20.9425 40 20.8769V19.1691C38.7192 19.1362 38.2924 18.4137 38.2924 17.7241Z" fill="#FAF9F8"/>
<path fill-rule="evenodd" clip-rule="evenodd" d="M23.7439 19.7282C22.7258 19.3341 21.8063 19.1043 21.8063 18.4474C21.8063 17.9549 22.2003 17.6593 22.9228 17.6593C23.6453 17.6593 24.3022 17.9549 25.0247 18.4804L26.3383 16.7398C25.5172 16.1159 24.4007 15.459 22.89 15.459C20.6569 15.459 19.1461 16.7398 19.1461 18.546C19.1461 20.1552 20.5583 20.9762 21.7407 21.436C22.7586 21.8301 23.7439 22.1585 23.7439 22.8152C23.7439 23.3079 23.3497 23.6363 22.4632 23.6363C21.6421 23.6363 20.8211 23.3079 19.9344 22.6182L18.6536 24.523C19.6388 25.344 21.1494 25.9023 22.3974 25.9023C25.0247 25.9023 26.4368 24.523 26.4368 22.7168C26.4368 20.9105 25.0247 20.1552 23.7439 19.7282Z" fill="#FAF9F8"/>
<path fill-rule="evenodd" clip-rule="evenodd" d="M31.6913 19.7282C30.7061 19.3341 29.7866 19.1043 29.7866 18.4474C29.7866 17.9549 30.1806 17.6593 30.9031 17.6593C31.6256 17.6593 32.2825 17.9549 33.005 18.4804L34.3186 16.7398C33.4975 16.1159 32.381 15.459 30.8703 15.459C28.637 15.459 27.1264 16.7398 27.1264 18.546C27.1264 20.1552 28.5386 20.9762 29.7208 21.436C30.7389 21.8301 31.7241 22.1585 31.7241 22.8152C31.7241 23.3079 31.33 23.6363 30.4433 23.6363C29.6224 23.6363 28.8013 23.3079 27.9147 22.6182L26.601 24.523C27.5863 25.344 29.0969 25.9023 30.3449 25.9023C32.972 25.9023 34.3842 24.523 34.3842 22.7168C34.3842 20.9105 32.972 20.1552 31.6913 19.7282Z" fill="#FAF9F8"/>
<path fill-rule="evenodd" clip-rule="evenodd" d="M12.1839 19.5636C12.3809 18.25 13.1691 17.6261 14.0886 17.6261C15.2709 17.6261 15.7308 18.447 15.7308 19.5636H12.1839ZM18.2266 20.1548C18.2594 17.4947 16.8144 15.4258 14.0558 15.4258C11.6584 15.4258 9.3597 17.4291 9.42532 20.5817C9.42532 23.833 11.56 25.7377 14.3842 25.7377C15.5666 25.7377 16.8802 25.3108 17.8981 24.6211L16.913 22.8806C16.1905 23.3075 15.5008 23.5045 14.7783 23.5045C13.4647 23.5045 12.4466 22.8806 12.1839 21.3698H18.1281C18.1609 21.14 18.2266 20.6803 18.2266 20.1548Z" fill="#FAF9F8"/>
<path fill-rule="evenodd" clip-rule="evenodd" d="M9.26109 23.4384C9.03125 23.4384 8.73563 23.2414 8.73563 22.6173V11.4844H4.07219C2.29891 11.4844 1.51063 12.1741 1.51063 14.3088C1.51063 15.7208 1.70766 16.5091 1.70766 17.7241C1.70766 18.4138 1.28078 19.1363 0 19.2019V20.9097C1.28078 20.9425 1.70766 21.665 1.70766 22.3547C1.70766 23.5698 1.51063 24.2922 1.51063 25.7044C1.51063 27.8391 2.29891 28.5287 4.03938 28.5287H5.32016V27.018H4.92609C4.10516 27.018 3.84234 26.6897 3.84234 25.6059C3.84234 24.5222 3.94094 23.6027 3.94094 22.3875C3.94094 20.8769 3.44828 20.2856 2.46297 20.0558V19.9573C3.44828 19.7273 3.94094 19.1363 3.94094 17.6256C3.94094 16.4433 3.84234 15.4909 3.84234 14.4072C3.84234 13.3234 4.07219 13.028 4.92609 13.028H5.81281V22.4531C5.81281 24.4564 6.5025 25.7702 8.50578 25.7702C9.12969 25.7702 9.62234 25.6716 9.98359 25.5402L9.65516 23.4056C9.45813 23.4384 9.35969 23.4384 9.26109 23.4384Z" fill="#FAF9F8"/>
</g>
</g>
<defs>
<linearGradient id="paint0_linear_877_58" x1="20.0357" y1="11.5254" x2="20.0357" y2="28.5577" gradientUnits="userSpaceOnUse">
<stop stop-color="#2E4F82"/>
<stop offset="1" stop-color="#182E4D"/>
</linearGradient>
<clipPath id="clip0_877_58">
<rect width="40" height="40" fill="white"/>
</clipPath>
</defs>
</svg>
