<svg width="40" height="40" viewBox="0 0 40 40" fill="none" xmlns="http://www.w3.org/2000/svg">
<path d="M32.1108 0H5.66235V40H38.7763V6.66583L32.1108 0Z" fill="#005FAD"/>
<path d="M32.1108 6.66583H38.7763L32.1108 0V6.66583Z" fill="#5E96DC"/>
<path d="M20.5934 6.66602H1.22351V15.6218H20.5934V6.66602Z" fill="#5E96DC"/>
<path d="M4.21899 9.1747C4.21899 8.86466 4.46425 8.61914 4.77456 8.61914H6.28161C7.48588 8.61914 8.2144 9.33329 8.2144 10.3645V10.3792C8.2144 11.547 7.30566 12.1528 6.17356 12.1528H5.32972V13.1556C5.32972 13.4656 5.0846 13.7108 4.77456 13.7108C4.46425 13.7108 4.21899 13.4656 4.21899 13.1556V9.1747ZM6.20944 11.1648C6.76487 11.1648 7.08942 10.8328 7.08942 10.401V10.3861C7.08942 9.88898 6.7431 9.62169 6.18807 9.62169H5.32972V11.1648H6.20944Z" fill="#005FAD"/>
<path d="M8.93817 13.1337C8.81573 13.0472 8.72919 12.8889 8.72919 12.7154C8.72919 12.4268 8.9598 12.2032 9.24847 12.2032C9.39267 12.2032 9.4936 12.254 9.56563 12.3041C9.94784 12.5854 10.3663 12.7588 10.8567 12.7588C11.3108 12.7588 11.5851 12.5787 11.5851 12.2825V12.2679C11.5851 11.9867 11.4119 11.8428 10.5683 11.626C9.55138 11.3666 8.89502 11.0854 8.89502 10.0831V10.0691C8.89502 9.15283 9.63054 8.54688 10.662 8.54688C11.2751 8.54688 11.8085 8.70519 12.263 8.99439C12.3854 9.06682 12.5081 9.21775 12.5081 9.43438C12.5081 9.72291 12.2773 9.94653 11.9887 9.94653C11.8806 9.94653 11.7941 9.91738 11.7074 9.86711C11.3398 9.65022 10.9937 9.52818 10.6475 9.52818C10.2216 9.52818 9.99837 9.72291 9.99837 9.96817V9.98202C9.99837 10.3141 10.2147 10.422 11.0873 10.6458C12.1114 10.9127 12.6882 11.2804 12.6882 12.1601V12.1749C12.6882 13.177 11.9236 13.7397 10.8348 13.7397C10.1717 13.7394 9.50072 13.5376 8.93817 13.1337Z" fill="#005FAD"/>
<path d="M13.657 9.1747C13.657 8.86466 13.9021 8.61914 14.2124 8.61914H15.6258C17.2124 8.61914 18.3085 9.70837 18.3085 11.129V11.1435C18.3085 12.5642 17.2124 13.6672 15.6258 13.6672H14.2124C13.9021 13.6672 13.657 13.4217 13.657 13.1118V9.1747ZM15.6259 12.6652C16.5347 12.6652 17.1472 12.0523 17.1472 11.1576V11.1436C17.1472 10.2494 16.5347 9.62169 15.6259 9.62169H14.7677V12.6652C14.7678 12.6652 15.6259 12.6652 15.6259 12.6652Z" fill="#005FAD"/>
<path d="M12.517 21.3315C12.517 20.621 13.0787 20.0586 13.7897 20.0586H17.2425C20.0018 20.0586 21.6712 21.6945 21.6712 24.057V24.0905C21.6712 26.7665 19.589 28.1548 16.9951 28.1548H15.0618V30.4519C15.0618 31.1623 14.5 31.7245 13.7897 31.7245C13.0787 31.7245 12.517 31.1623 12.517 30.4519V21.3315ZM17.0773 25.8906C18.35 25.8906 19.0936 25.1303 19.0936 24.1404V24.1064C19.0936 22.9673 18.3003 22.3549 17.0282 22.3549H15.0621V25.8906H17.0773Z" fill="#5E96DC"/>
<path d="M23.3295 30.4017C23.049 30.2038 22.8505 29.8406 22.8505 29.4435C22.8505 28.7828 23.3791 28.2704 24.0405 28.2704C24.3707 28.2704 24.6021 28.3859 24.767 28.5014C25.6429 29.1457 26.6015 29.543 27.7249 29.543C28.7656 29.543 29.3937 29.1303 29.3937 28.4518V28.4182C29.3937 27.7742 28.9969 27.4445 27.0642 26.9475C24.734 26.3533 23.2304 25.7089 23.2304 23.4121V23.3801C23.2304 21.2809 24.9156 19.8926 27.2789 19.8926C28.6834 19.8926 29.9058 20.2555 30.9471 20.9176C31.2276 21.083 31.5087 21.4293 31.5087 21.9255C31.5087 22.5865 30.9799 23.0989 30.3187 23.0989C30.0711 23.0989 29.8726 23.0327 29.6743 22.9171C28.8321 22.4206 28.0391 22.1408 27.2459 22.1408C26.2704 22.1408 25.7585 22.5865 25.7585 23.1486V23.1807C25.7585 23.9416 26.2542 24.1885 28.2537 24.7012C30.6 25.3131 31.9217 26.1551 31.9217 28.1707V28.2045C31.9217 30.5008 30.17 31.7898 27.6749 31.7898C26.1555 31.7895 24.6182 31.3273 23.3295 30.4017Z" fill="#5E96DC"/>
</svg>
