<svg width="40" height="35" viewBox="0 0 40 35" fill="none" xmlns="http://www.w3.org/2000/svg">
<path d="M32.888 11.3442C32.4731 11.2037 32.0431 11.0708 31.6004 10.9451C31.6732 10.653 31.7399 10.3648 31.7993 10.0814C32.774 5.42822 32.1367 1.6796 29.9605 0.445399C27.8738 -0.73804 24.4611 0.495885 21.0145 3.44576C20.6831 3.72942 20.3507 4.02975 20.0185 4.34449C19.7972 4.13625 19.5762 3.93501 19.3557 3.74252C15.7436 0.588313 12.1229 -0.740911 9.94884 0.496865C7.86412 1.68373 7.24675 5.20779 8.12414 9.61763C8.20887 10.0436 8.30791 10.4785 8.41991 10.9208C7.90748 11.0639 7.41279 11.2164 6.93946 11.3786C2.70458 12.8306 0 15.1064 0 17.4669C0 19.9048 2.90337 22.3501 7.31432 23.8328C7.66242 23.9498 8.02361 24.0605 8.39584 24.1655C8.27501 24.6438 8.16992 25.1125 8.08171 25.5697C7.24511 29.903 7.89844 33.3438 9.97761 34.5232C12.1252 35.7412 15.7295 34.4892 19.2391 31.4721C19.5165 31.2336 19.7949 30.9807 20.0738 30.7156C20.4352 31.058 20.7962 31.3819 21.1551 31.6858C24.5546 34.5628 27.9122 35.7246 29.9894 34.5419C32.1349 33.3204 32.8321 29.6242 31.9269 25.1271C31.8578 24.7837 31.7773 24.4328 31.687 24.0757C31.9401 24.0021 32.1886 23.9261 32.4309 23.8471C37.0165 22.3529 40 19.9374 40 17.4669C40 15.0978 37.2082 12.8068 32.888 11.3442ZM31.8934 22.2519C31.6747 22.3232 31.4503 22.392 31.2216 22.4587C30.7154 20.8826 30.0321 19.2066 29.1961 17.4751C29.9939 15.7847 30.6507 14.1302 31.1428 12.5643C31.552 12.6807 31.9491 12.8035 32.3318 12.9332C36.0333 14.1863 38.2912 16.0392 38.2912 17.4669C38.2912 18.9876 35.8528 20.9617 31.8934 22.2519ZM30.2506 25.4535C30.6509 27.442 30.708 29.2399 30.4429 30.6454C30.2047 31.9083 29.7256 32.7503 29.1332 33.0875C27.8726 33.8051 25.1768 32.8724 22.2696 30.4119C21.9363 30.1299 21.6006 29.8287 21.2638 29.51C22.3909 28.2977 23.5173 26.8884 24.6167 25.3232C26.5504 25.1544 28.3773 24.8785 30.0341 24.5019C30.1157 24.8256 30.1881 25.1431 30.2506 25.4535ZM13.6369 32.9635C12.4053 33.3913 11.4244 33.4035 10.8314 33.0673C9.56971 32.3516 9.04518 29.589 9.76066 25.8831C9.84261 25.4587 9.94016 25.0228 10.0526 24.5772C11.6912 24.9335 13.5047 25.1899 15.443 25.3445C16.5498 26.876 17.7088 28.2838 18.8768 29.5165C18.6216 29.7588 18.3674 29.9894 18.1146 30.2068C16.5627 31.5409 15.0075 32.4875 13.6369 32.9635ZM7.86697 22.2426C5.91653 21.587 4.30579 20.7349 3.2017 19.8051C2.2096 18.9695 1.70872 18.14 1.70872 17.4669C1.70872 16.0344 3.88023 14.2073 7.50193 12.9655C7.94137 12.8148 8.40139 12.6728 8.87879 12.5394C9.37932 14.1407 10.0359 15.8148 10.8283 17.5078C10.0257 19.2258 9.35974 20.9266 8.85429 22.5467C8.51396 22.4505 8.18424 22.3492 7.86697 22.2426ZM9.8011 9.2949C9.04938 5.51666 9.54863 2.66649 10.8049 1.95129C12.1431 1.18938 15.1023 2.2757 18.2211 4.9992C18.4204 5.17327 18.6206 5.35547 18.8213 5.54397C17.6591 6.77124 16.5107 8.16846 15.4138 9.69101C13.5325 9.86249 11.7317 10.138 10.0761 10.5068C9.97198 10.095 9.87978 9.69045 9.8011 9.2949ZM27.0553 13.4849C26.6595 12.8126 26.2532 12.1561 25.8389 11.5176C27.1152 11.6763 28.338 11.8869 29.4863 12.1446C29.1415 13.2312 28.7118 14.3673 28.206 15.532C27.8432 14.8546 27.4594 14.1715 27.0553 13.4849ZM20.0191 6.74498C20.8073 7.58475 21.5966 8.52235 22.3729 9.53962C21.5906 9.50328 20.7986 9.48438 20 9.48438C19.209 9.48438 18.4228 9.50286 17.6453 9.53857C18.4224 8.53075 19.2186 7.59442 20.0191 6.74498ZM12.9378 13.4966C12.5424 14.1708 12.1658 14.8501 11.8086 15.5308C11.311 14.3701 10.8853 13.2289 10.5376 12.1269C11.6788 11.8757 12.8959 11.6703 14.164 11.5147C13.7439 12.1591 13.3342 12.8204 12.9378 13.4964V13.4966ZM14.2005 23.5389C12.8903 23.3952 11.655 23.2004 10.514 22.9562C10.8673 21.8345 11.3024 20.6688 11.8106 19.4832C12.1686 20.1633 12.5468 20.843 12.9446 21.5187H12.9446C13.3498 22.2071 13.7696 22.8814 14.2005 23.5389ZM20.0664 28.3072C19.2565 27.4478 18.4486 26.4972 17.6597 25.4747C18.4256 25.5042 19.2064 25.5194 20 25.5194C20.8153 25.5194 21.6213 25.5013 22.4146 25.4666C21.6357 26.5075 20.8492 27.4596 20.0664 28.3072ZM28.2223 19.4228C28.757 20.6212 29.2077 21.7808 29.5655 22.8833C28.4057 23.1435 27.1536 23.3531 25.8342 23.5088C26.2495 22.8617 26.6594 22.194 27.0621 21.5071C27.4696 20.8122 27.8565 20.1163 28.2223 19.4228ZM25.582 20.6676C24.9567 21.7338 24.3148 22.7516 23.6631 23.7124C22.4761 23.7959 21.2498 23.8388 20 23.8388C18.7552 23.8388 17.5444 23.8008 16.3784 23.7264C15.7005 22.753 15.0446 21.7322 14.4233 20.6767H14.4234C13.8038 19.6242 13.2335 18.5627 12.7167 17.5072C13.2333 16.4492 13.8022 15.3866 14.4182 14.3359L14.4181 14.3361C15.0358 13.2826 15.686 12.2668 16.3576 11.2995C17.5473 11.211 18.7671 11.1649 19.9999 11.1649H20C21.2384 11.1649 22.4598 11.2114 23.649 11.3006C24.3105 12.2608 24.9562 13.2734 25.5763 14.327C26.2035 15.3925 26.7797 16.448 27.3007 17.4833C26.7813 18.5364 26.2064 19.6026 25.582 20.6676ZM29.107 1.90129C30.4465 2.66096 30.9674 5.72469 30.1258 9.7422C30.0721 9.99855 30.0116 10.2597 29.946 10.5243C28.2865 10.1477 26.4844 9.86747 24.5977 9.69339C23.4986 8.1541 22.3596 6.75471 21.2164 5.5432C21.5237 5.2524 21.8307 4.97511 22.1363 4.71344C25.0894 2.186 27.8495 1.18812 29.107 1.90129ZM20 13.9541C21.9727 13.9541 23.5719 15.5268 23.5719 17.4669C23.5719 19.4069 21.9727 20.9796 20 20.9796C18.0273 20.9796 16.4281 19.4069 16.4281 17.4669C16.4281 15.5268 18.0273 13.9541 20 13.9541Z" fill="#00D8FF"/>
</svg>
