<svg width="35" height="35" viewBox="0 0 35 35" fill="none" xmlns="http://www.w3.org/2000/svg">
<g clip-path="url(#clip0_1108_466)">
<path d="M24.2513 24.026C25.5429 23.8923 26.5228 22.7788 26.4783 21.4426C26.4337 20.1064 25.3202 19.0374 23.9841 19.0374H23.895C22.5143 19.082 21.4453 20.24 21.4899 21.6208C21.5344 22.2889 21.8017 22.8679 22.2025 23.2688C20.6882 26.253 18.3722 28.4355 14.8981 30.2616C12.5376 31.5088 10.0879 31.9542 7.63827 31.6424C5.63401 31.3752 4.07515 30.4843 3.09529 29.0145C1.67004 26.832 1.53643 24.4714 2.73898 22.1107C3.58522 20.4182 4.92139 19.171 5.76763 18.5475C5.58947 17.9684 5.32224 16.9885 5.18862 16.2759C-1.26953 20.9527 -0.601444 27.2774 1.35827 30.2616C2.82806 32.4887 5.81217 33.8694 9.10805 33.8694C9.99883 33.8694 10.8896 33.7803 11.7804 33.5576C17.4814 32.4441 21.8017 29.059 24.2513 24.026ZM32.0902 18.5029C28.7052 14.5388 23.7168 12.3563 18.0158 12.3563H17.3032C16.9024 11.5546 16.0561 11.0201 15.1208 11.0201H15.0317C13.651 11.0646 12.5821 12.2227 12.6266 13.6035C12.6712 14.9397 13.7846 16.0087 15.1208 16.0087H15.2099C16.1897 15.9641 17.036 15.3405 17.3923 14.4943H18.194C21.579 14.4943 24.7858 15.4742 27.6808 17.3894C29.9078 18.8592 31.5112 20.7745 32.4019 23.0906C33.1591 24.9613 33.1146 26.7875 32.3129 28.3464C31.0658 30.707 28.9724 31.9987 26.211 31.9987C24.4295 31.9987 22.737 31.4642 21.8462 31.0634C21.3563 31.5088 20.4655 32.2214 19.8419 32.6668C21.7571 33.5576 23.7168 34.0476 25.5875 34.0476C29.8632 34.0476 33.0255 31.6869 34.228 29.3263C35.5197 26.7429 35.4306 22.2889 32.0902 18.5029ZM9.46436 24.7831C9.5089 26.1194 10.6224 27.1883 11.9585 27.1883H12.0476C13.4283 27.1438 14.4973 25.9857 14.4527 24.605C14.4082 23.2688 13.2947 22.1998 11.9585 22.1998H11.8695C11.7804 22.1998 11.6468 22.1998 11.5577 22.2443C9.7316 19.2156 8.97443 15.9196 9.24167 12.3563C9.41982 9.68389 10.3106 7.36778 11.8695 5.45253C13.1611 3.80453 15.6553 3.0028 17.3478 2.95826C22.0689 2.86918 24.0731 8.74854 24.2068 11.1092C24.7858 11.2428 25.7656 11.5546 26.4337 11.7773C25.8992 4.56172 21.4453 0.820312 17.1696 0.820312C13.1611 0.820312 9.46436 3.71545 7.99458 7.99135C5.94579 13.6925 7.28195 19.171 9.77614 23.4915C9.55344 23.8033 9.41982 24.2932 9.46436 24.7831Z" fill="#764ABC"/>
</g>
<defs>
<clipPath id="clip0_1108_466">
<rect width="35" height="35" fill="white"/>
</clipPath>
</defs>
</svg>
