<svg width="40" height="30" viewBox="0 0 40 30" fill="none" xmlns="http://www.w3.org/2000/svg">
<path d="M34.4431 17.2445C33.0477 17.2518 31.8348 17.5878 30.8193 18.0847C30.4467 17.3467 30.0741 16.6892 30.0083 16.207C29.9352 15.6444 29.8476 15.301 29.9352 14.6289C30.0229 13.9567 30.4174 12.9996 30.4101 12.9265C30.4028 12.8535 30.3225 12.5101 29.5188 12.5028C28.7151 12.4955 28.021 12.6562 27.9407 12.8681C27.8603 13.0799 27.7069 13.5622 27.6046 14.059C27.4658 14.7896 25.9972 17.3979 25.157 18.7641C24.8867 18.2308 24.6529 17.7632 24.6017 17.3906C24.5287 16.828 24.441 16.4846 24.5287 15.8124C24.6164 15.1403 25.0109 14.1832 25.0036 14.1101C24.9963 14.0371 24.9159 13.6937 24.1122 13.6864C23.3086 13.6791 22.6145 13.8398 22.5341 14.0517C22.4537 14.2635 22.3661 14.7604 22.198 15.2426C22.03 15.7248 20.0792 20.0792 19.5678 21.2044C19.3048 21.7816 19.0783 22.2419 18.9176 22.556C18.9176 22.556 18.9102 22.5779 18.8883 22.6145C18.7495 22.8848 18.6691 23.0309 18.6691 23.0309C18.6691 23.0309 18.6691 23.0309 18.6691 23.0382C18.5596 23.2355 18.4427 23.4182 18.3842 23.4182C18.3404 23.4182 18.26 22.8921 18.3988 22.1761C18.6911 20.6637 19.3851 18.3112 19.3778 18.2308C19.3778 18.1869 19.5094 17.7778 18.9249 17.5659C18.355 17.354 18.1504 17.7047 18.0993 17.7047C18.0481 17.7047 18.0116 17.8289 18.0116 17.8289C18.0116 17.8289 18.6472 15.1841 16.7988 15.1841C15.6444 15.1841 14.0517 16.4481 13.2626 17.5878C12.7658 17.8582 11.7064 18.4354 10.5739 19.0564C10.1429 19.2975 9.69718 19.5386 9.28073 19.7651C9.25151 19.7359 9.22228 19.6993 9.19306 19.6701C6.95738 17.281 2.82209 15.5933 2.99744 12.3859C3.06319 11.2169 3.46503 8.14829 10.9392 4.42215C17.091 1.3901 21.9861 2.2303 22.8337 4.09337C24.0465 6.75281 20.2107 11.6918 13.8544 12.4078C11.4287 12.6781 10.1575 11.7429 9.836 11.3922C9.49992 11.0269 9.44878 11.005 9.32457 11.0781C9.12 11.1877 9.25151 11.5164 9.32457 11.7064C9.51453 12.2032 10.2963 13.0799 11.6187 13.511C12.7877 13.8909 15.6298 14.1028 19.071 12.7731C22.9213 11.2826 25.9315 7.14004 25.0474 3.66962C24.1634 0.14805 18.3184 -1.01363 12.7877 0.951727C9.49992 2.12071 5.93451 3.96186 3.37005 6.35828C0.323386 9.20768 -0.15882 11.6845 0.0384464 12.7219C0.747143 16.4042 5.82492 18.8007 7.85603 20.5761C7.75375 20.6345 7.65877 20.6857 7.5784 20.7295C6.56284 21.2336 2.69058 23.2574 1.72617 25.3981C0.630245 27.8238 1.90152 29.5626 2.74172 29.7964C5.35002 30.5197 8.03138 29.2192 9.47069 27.0712C10.91 24.9232 10.7347 22.1323 10.0698 20.8537C10.0625 20.8391 10.0552 20.8245 10.0406 20.8099C10.3036 20.6564 10.5739 20.4957 10.8369 20.3423C11.3557 20.0354 11.8671 19.7505 12.3055 19.5167C12.0571 20.1961 11.8744 21.0071 11.7867 22.1761C11.6772 23.5497 12.2397 25.3324 12.9776 26.0338C13.3064 26.3406 13.6937 26.3479 13.9421 26.3479C14.8042 26.3479 15.1914 25.6319 15.6225 24.7844C16.1485 23.7469 16.6234 22.5414 16.6234 22.5414C16.6234 22.5414 16.0316 25.8 17.639 25.8C18.2235 25.8 18.8153 25.0401 19.0783 24.6529V24.6602C19.0783 24.6602 19.0929 24.6383 19.1221 24.5871C19.1806 24.4922 19.2171 24.4337 19.2171 24.4337V24.4191C19.4509 24.01 19.9769 23.0821 20.7587 21.5405C21.767 19.5532 22.7387 17.0691 22.7387 17.0691C22.7387 17.0691 22.8263 17.6755 23.1259 18.6838C23.3012 19.2756 23.6666 19.9258 23.9588 20.5541C23.725 20.8829 23.5789 21.0656 23.5789 21.0656C23.5789 21.0656 23.5789 21.0656 23.5862 21.0729C23.3962 21.3213 23.1917 21.5916 22.9652 21.8546C22.1688 22.8044 21.219 23.8931 21.0875 24.2072C20.9341 24.5798 20.9706 24.8502 21.2628 25.0693C21.4747 25.2301 21.8546 25.252 22.2419 25.2301C22.9579 25.1789 23.462 25.0036 23.7104 24.894C24.0976 24.7552 24.5506 24.5433 24.9744 24.2291C25.7561 23.652 26.231 22.8264 26.1872 21.7377C26.1653 21.1386 25.968 20.5395 25.7269 19.977C25.8 19.8747 25.8657 19.7724 25.9388 19.6701C27.1735 17.8655 28.1306 15.8855 28.1306 15.8855C28.1306 15.8855 28.2183 16.4919 28.5178 17.5002C28.664 18.0116 28.9635 18.5669 29.2265 19.1075C28.0649 20.05 27.3489 21.1459 27.0931 21.8619C26.6329 23.1917 26.9909 23.7908 27.6703 23.9296C27.9772 23.9953 28.4156 23.8492 28.737 23.7104C29.1462 23.5789 29.6284 23.3524 30.0887 23.0163C30.8704 22.4391 31.623 21.6355 31.5791 20.5468C31.5572 20.05 31.4257 19.5605 31.243 19.0856C32.2294 18.6765 33.5006 18.45 35.1226 18.6399C38.6003 19.0491 39.2871 21.219 39.1556 22.1323C39.0241 23.0455 38.2935 23.5424 38.0524 23.6958C37.8113 23.8492 37.7309 23.9004 37.7528 24.01C37.782 24.1707 37.8989 24.1634 38.1035 24.1342C38.3885 24.083 39.9301 23.3962 39.9958 21.7158C40.1054 19.5678 38.0597 17.2225 34.4431 17.2445ZM7.61493 26.2895C6.46056 27.5461 4.8532 28.021 4.15912 27.6192C3.41389 27.1881 3.70614 25.3324 5.12353 24.0026C5.98566 23.1917 7.09619 22.4391 7.83411 21.9788C8.00216 21.8766 8.25057 21.7304 8.55012 21.5478C8.60126 21.5186 8.63049 21.5039 8.63049 21.5039C8.68894 21.4674 8.74738 21.4309 8.80583 21.3944C9.32457 23.2939 8.82775 24.9671 7.61493 26.2895ZM16.017 20.5761C15.6152 21.5551 14.775 24.0611 14.2635 23.9223C13.8252 23.8054 13.5548 21.9058 14.1759 20.0281C14.49 19.0856 15.1549 17.9605 15.5421 17.5221C16.1704 16.8207 16.8645 16.5869 17.0326 16.8718C17.2444 17.2445 16.2654 19.9623 16.017 20.5761ZM22.9506 23.8931C22.7825 23.9807 22.6218 24.0392 22.5487 23.9953C22.4976 23.9661 22.6218 23.8492 22.6218 23.8492C22.6218 23.8492 23.4912 22.914 23.8346 22.4903C24.0319 22.2419 24.2657 21.9496 24.5141 21.6208V21.7158C24.5141 22.8337 23.4328 23.5862 22.9506 23.8931ZM28.2987 22.6729C28.1745 22.5853 28.1964 22.293 28.6128 21.3797C28.7736 21.0217 29.1535 20.4226 29.8037 19.8454C29.8768 20.0792 29.9279 20.3057 29.9206 20.5176C29.9133 21.9277 28.9051 22.4537 28.2987 22.6729Z" fill="#CD6799"/>
</svg>
