<svg width="40" height="40" viewBox="0 0 40 40" fill="none" xmlns="http://www.w3.org/2000/svg">
<g clip-path="url(#clip0_1097_151)">
<path d="M19.8531 39.9995C9.19541 39.926 -0.0714178 31.081 0.000414853 19.8435C0.0694765 9.0306 9.05495 -0.0732762 20.1734 0.000444617C30.9792 0.0722478 40.0958 9.04168 39.9992 20.0303C40.0888 30.9193 30.9272 40.0764 19.8531 39.9995ZM19.8531 39.9995C9.19541 39.926 -0.0714178 31.081 0.000414853 19.8435C0.0694765 9.0306 9.05495 -0.0732762 20.1734 0.000444617C30.9792 0.0722478 40.0958 9.04168 39.9992 20.0303C40.0888 30.9193 30.9272 40.0764 19.8531 39.9995Z" fill="white"/>
<path d="M19.8726 37.3433C10.6301 37.2796 2.59431 29.6092 2.65661 19.8643C2.71657 10.4873 10.5087 2.59245 20.1505 2.65664C29.521 2.71891 37.4269 10.4973 37.3431 20.0264C37.4207 29.4691 29.4762 37.4101 19.8726 37.3433ZM19.8726 37.3433C10.6301 37.2796 2.59431 29.6092 2.65661 19.8643C2.71657 10.4873 10.5087 2.59245 20.1505 2.65664C29.521 2.71891 37.4269 10.4973 37.3431 20.0264C37.4207 29.4691 29.4762 37.4101 19.8726 37.3433Z" fill="#49A32B"/>
<path d="M26.4574 19.9932C26.4129 20.8197 25.6908 21.5061 24.9791 21.3863C24.9757 21.3863 24.9721 21.3863 24.9685 21.3863C24.1802 21.3874 23.5404 20.7491 23.5395 19.9608C23.5663 19.1704 24.2219 18.5474 25.0125 18.5608C25.8008 18.5646 26.4999 19.2308 26.4574 19.9932ZM13.7814 28.0031C14.0787 28.0119 14.3761 28.0055 14.7189 28.0055V30.1595C12.5885 30.5197 10.8336 29.9149 10.4029 28.114C10.2555 27.4519 10.1648 26.7783 10.1316 26.1006C10.0859 25.3832 10.1651 24.6576 10.1104 23.9414C9.95888 21.9708 9.70356 21.298 7.8125 21.2049V18.7523C7.94803 18.7206 8.08548 18.6972 8.22378 18.6817C9.26059 18.6306 9.69761 18.3127 9.92952 17.2914C10.0351 16.7176 10.0976 16.1368 10.1161 15.5536C10.1982 14.4259 10.1691 13.28 10.357 12.1706C10.6285 10.5663 11.6244 9.78698 13.2695 9.69975C13.7376 9.67464 14.2072 9.69592 14.7376 9.69592V11.8976C14.5193 11.9131 14.3193 11.9449 14.1206 11.9389C12.7799 11.8978 12.7106 12.3544 12.6127 13.4642C12.5516 14.1602 12.6359 14.868 12.5885 15.5663C12.5389 16.2612 12.4459 16.9525 12.3102 17.6359C12.1168 18.6263 11.5078 19.3629 10.664 19.988C12.3021 21.054 12.4885 22.7104 12.5948 24.3923C12.6521 25.2961 12.6259 26.2063 12.7176 27.1057C12.7891 27.8038 13.0606 27.9819 13.7814 28.0031ZM15.1621 18.5608C15.1706 18.5608 15.1789 18.5608 15.1874 18.5608C15.9706 18.5738 16.5953 19.2191 16.5823 20.0025C16.5823 20.0283 16.5814 20.0538 16.5799 20.0793C16.5359 20.8449 15.8797 21.4295 15.1142 21.3855C15.0834 21.3861 15.0527 21.3855 15.0219 21.384C14.2423 21.3453 13.6416 20.6819 13.6804 19.9023C13.7191 19.1227 14.3825 18.5221 15.1621 18.5608ZM20.0427 18.5608C20.8993 18.5542 21.4682 19.1093 21.4727 19.9561C21.4774 20.8257 20.938 21.3821 20.087 21.3857C19.2214 21.3895 18.6516 20.8421 18.647 20.0004C18.6444 19.9574 18.6438 19.9144 18.6451 19.8714C18.6691 19.1236 19.2948 18.5368 20.0427 18.5608ZM30.2614 17.488C30.4893 18.3391 30.9329 18.6383 31.8289 18.6791C31.9757 18.6859 32.1219 18.7108 32.3231 18.7331V21.1851C32.2142 21.2208 32.1025 21.2476 31.9891 21.2651C30.7885 21.3397 30.2412 21.8323 30.1199 23.0361C30.0425 23.8046 30.0489 24.5817 29.9957 25.3529C29.9733 26.1997 29.8963 27.0442 29.7651 27.881C29.4587 29.3972 28.5121 30.1536 26.948 30.2459C26.4446 30.2757 25.9376 30.2506 25.3948 30.2506V28.0591C25.687 28.041 25.9448 28.0161 26.2034 28.01C27.1378 27.9876 27.4682 27.6863 27.514 26.7583C27.5646 25.7387 27.5868 24.7178 27.6323 23.698C27.6985 22.224 28.1021 20.9072 29.4753 19.9878C28.6895 19.4276 28.0587 18.7491 27.8953 17.8342C27.6976 16.7253 27.6338 15.5919 27.5274 14.4674C27.4748 13.9053 27.4774 13.3383 27.4225 12.7766C27.3633 12.1702 26.9468 11.9604 26.3948 11.9468C26.0787 11.9391 25.7612 11.9453 25.357 11.9453V9.80528C27.9365 9.37698 29.7185 10.2353 29.884 12.7034C29.9534 13.7397 29.9431 14.781 30.0095 15.8174C30.0387 16.3812 30.1229 16.9408 30.2614 17.488Z" fill="white"/>
</g>
<defs>
<clipPath id="clip0_1097_151">
<rect width="40" height="40" fill="white"/>
</clipPath>
</defs>
</svg>
