<svg width="40" height="40" viewBox="0 0 40 40" fill="none" xmlns="http://www.w3.org/2000/svg">
<path d="M20 0.00585938L37.6552 9.99269V29.973L20 39.9598L2.34485 29.973V9.99269L20 0.00585938Z" fill="white"/>
<path d="M34.5039 29.28L20.5863 37.1615V31.0322L29.2607 26.2553L34.5039 29.28ZM35.4566 28.4205V11.9513L30.3666 14.8894V25.4825L35.4566 28.4205ZM5.44283 29.28L19.3604 37.1549V31.0255L10.6861 26.2553L5.44283 29.28ZM4.49011 28.4205V11.9513L9.58013 14.8894V25.4825L4.49011 28.4205ZM5.08306 10.8853L19.3604 2.81055V8.74002L10.2131 13.7701L10.1398 13.8101L5.08306 10.8853ZM34.857 10.8853L20.5863 2.81055V8.74002L29.727 13.7767L29.8003 13.8167L34.857 10.8853Z" fill="#8ED6FB"/>
<path d="M19.3605 29.6326L10.806 24.9223V15.6017L19.3605 20.5385V29.6326ZM20.5863 29.6326L29.1408 24.929V15.6017L20.5863 20.5385V29.6326ZM11.379 14.5224L19.9734 9.79883L28.5611 14.5224L19.9734 19.4792L11.379 14.5224Z" fill="#1C78C0"/>
</svg>
