<svg width="187" height="182" viewBox="0 0 187 182" fill="none" xmlns="http://www.w3.org/2000/svg">
<path d="M84.1489 139.476C79.928 139.196 76.8307 133.956 75.8096 131.371C69.4633 137.84 56.0776 150.837 53.306 151.077C49.8415 151.377 31.0844 126.552 32.1381 122.647C32.9811 119.524 45.0893 111.141 51.0381 107.34C50.3521 107.029 47.7597 106.831 42.8783 108.521C36.7764 110.634 27.7727 112.554 27.6678 114.137C27.5629 115.72 23.6262 123.143 22.8348 123.091C22.2017 123.049 22.7459 120.435 23.0971 119.134C21.1866 120.641 17.2916 123.571 16.996 123.234C16.7004 122.896 17.9266 119.188 18.5766 117.377L14.8316 119.911C14.3392 120.01 13.6778 119.728 14.9715 117.8C16.5885 115.39 30.426 106.503 35.8238 103.019C41.2216 99.5348 66.8446 96.7286 66.7397 98.3115C66.6558 99.5777 74.9181 114.84 81.6446 121.292C81.4754 123.179 81.3831 127.236 82.3684 128.361L87.6644 134.409C88.5265 135.394 99.3252 136.375 100.117 136.427C100.75 136.469 102.877 134.755 103.862 133.893C104.746 132.538 106.614 129.942 107.008 130.392C107.501 130.955 105.885 135.352 106.588 134.736C107.291 134.12 114.325 131.937 114.273 132.728C114.22 133.52 107.925 136.547 107.855 137.602C107.785 138.658 115.207 138.619 115.014 139.534C114.821 140.449 108.015 141.19 106.168 141.068C104.691 140.97 101.73 140.067 100.434 139.628C96.7647 139.694 88.3699 139.755 84.1489 139.476Z" fill="#B5EEFF"/>
<path d="M145.57 114.268C116.766 139.492 84.8646 125.348 72.5147 115.123C60.8607 100.396 45.4851 63.9943 77.2152 36.2089C116.878 1.47712 145.292 30.5197 155.637 42.3341C165.983 54.1485 181.576 82.7388 145.57 114.268Z" fill="#B5EEFF"/>
<path d="M108.128 60.7908C107.401 71.7653 101.451 81.1963 96.6698 81.7588C91.8882 82.3212 80.5903 68.5046 81.1848 59.535C81.7793 50.5655 88.1961 43.704 92.7332 43.2099C97.2702 42.7159 109.038 47.0727 108.128 60.7908Z" fill="#030100"/>
<path d="M124.489 79.4759C113.515 78.7485 103.381 83.4013 102.193 88.0669C101.004 92.7325 113.209 105.755 122.178 106.35C131.148 106.944 138.796 101.489 139.885 97.0568C140.973 92.6246 138.208 80.3852 124.489 79.4759Z" fill="#030100"/>
<path d="M81.8806 95.7363C83.5337 95.4484 87.1846 95.2665 88.5641 96.8417C89.9435 98.417 89.1991 101.918 88.6545 103.472" stroke="#030100" stroke-width="2" stroke-linecap="round"/>
</svg>
