<svg width="72" height="109" viewBox="0 0 72 109" fill="none" xmlns="http://www.w3.org/2000/svg">
<path d="M9.94454 83.4909C7.44379 83.3433 5.63006 80.2565 5.0358 78.7316C1.24667 82.5853 -6.74256 90.3313 -8.38643 90.4851C-10.4413 90.6775 -21.4543 76.0698 -20.8132 73.7553C-20.3003 71.9037 -13.0878 66.8929 -9.54559 64.6189C-9.9509 64.4382 -11.4867 64.3318 -14.3873 65.3524C-18.013 66.6282 -23.358 67.8025 -23.4269 68.7394C-23.4958 69.6763 -25.8606 74.0846 -26.3295 74.0569C-26.7046 74.0347 -26.371 72.4862 -26.1573 71.7147C-27.2961 72.6145 -29.6172 74.3646 -29.791 74.1662C-29.9648 73.9677 -29.2223 71.7689 -28.8293 70.6944L-31.0599 72.2093C-31.3522 72.2705 -31.743 72.1063 -30.9681 70.9602C-29.9993 69.5275 -21.7597 64.2114 -18.5454 62.1273C-15.3312 60.0431 -0.131503 58.2744 -0.200386 59.2113C-0.255497 59.9608 4.57732 68.9552 8.53711 72.7437C8.42878 73.8612 8.35693 76.2616 8.9362 76.9231L12.0497 80.4787C12.5566 81.0575 18.9533 81.592 19.4222 81.6197C19.7973 81.6419 21.0655 80.619 21.6527 80.1047C22.1829 79.2996 23.301 77.7556 23.5327 78.0202C23.8224 78.3509 22.8457 80.9593 23.2652 80.592C23.6846 80.2247 27.8631 78.9032 27.8287 79.3716C27.7942 79.84 24.0502 81.6577 24.0042 82.2823C23.9583 82.9069 28.3576 82.853 28.2392 83.3949C28.1209 83.9368 24.0837 84.4041 22.9896 84.3395C22.1143 84.2879 20.3632 83.7663 19.597 83.5119C17.4215 83.5664 12.4453 83.6386 9.94454 83.4909Z" fill="#B5EEFF"/>
<path d="M46.4582 68.3179C29.2778 83.3625 10.4286 75.1297 3.1516 69.1328C-3.69389 60.4691 -12.6535 38.9987 6.2718 22.4262C29.9285 1.7105 46.6477 18.7722 52.73 25.718C58.8122 32.6638 67.9338 49.5122 46.4582 68.3179Z" fill="#B5EEFF"/>
<path d="M24.4912 36.8379C24.0136 43.3336 20.4471 48.9384 17.6105 49.2913C14.7738 49.6443 8.1356 41.518 8.52595 36.209C8.9163 30.9 12.7488 26.8135 15.4402 26.502C18.1316 26.1905 25.0882 28.7182 24.4912 36.8379Z" fill="#030100"/>
<path d="M34.1099 47.8244C27.6079 47.4405 21.5815 50.2361 20.8573 53.0013C20.133 55.7666 27.3121 63.4192 32.6262 63.733C37.9403 64.0467 42.4969 60.7871 43.1608 58.1603C43.8248 55.5336 42.2373 48.3042 34.1099 47.8244Z" fill="#030100"/>
<path d="M14.697 60.4824C13.716 60.6597 11.5511 60.7828 10.7402 59.8567C9.92918 58.9306 10.3852 56.8561 10.7146 55.9346" stroke="#030100" stroke-width="2" stroke-linecap="round"/>
</svg>
