<svg width="79" height="110" viewBox="0 0 79 110" fill="none" xmlns="http://www.w3.org/2000/svg">
<path d="M16.4263 83.6408C13.8953 83.4775 12.0434 80.34 11.4338 78.7917C7.62116 82.6757 -0.419676 90.4803 -2.08205 90.6272C-4.16001 90.8108 -15.3825 75.9498 -14.7465 73.6082C-14.2377 71.7349 -6.96774 66.6973 -3.39634 64.4127C-3.80741 64.2273 -5.36183 64.1112 -8.29097 65.1294C-11.9524 66.4022 -17.3539 67.5628 -17.4184 68.5117C-17.483 69.4606 -19.8515 73.9142 -20.3261 73.8836C-20.7057 73.8591 -20.3766 72.2919 -20.1646 71.5114C-21.3119 72.4169 -23.6508 74.1774 -23.8277 73.9754C-24.0046 73.7734 -23.2654 71.5496 -22.8737 70.463L-25.1222 71.9858C-25.4176 72.0461 -25.8139 71.8776 -25.0361 70.7206C-24.0639 69.2743 -15.7564 63.933 -12.5157 61.8388C-9.27503 59.7447 6.09378 58.0358 6.02921 58.9847C5.97756 59.7438 10.9164 68.8836 14.9435 72.7438C14.84 73.8755 14.7805 76.3073 15.3702 76.9807L18.5398 80.6003C19.0558 81.1895 25.5306 81.7661 26.0052 81.7967C26.3849 81.8212 27.6624 80.7917 28.2537 80.2739C28.7857 79.4611 29.9085 77.9027 30.1444 78.1721C30.4393 78.5088 29.4654 81.1463 29.8878 80.7764C30.3101 80.4066 34.5306 79.0904 34.4983 79.5649C34.466 80.0393 30.6878 81.8605 30.6448 82.4931C30.6017 83.1257 35.0525 83.0952 34.9357 83.6436C34.8189 84.192 30.7368 84.6434 29.6295 84.572C28.7436 84.5149 26.969 83.9768 26.1924 83.7149C23.9916 83.7582 18.9573 83.8041 16.4263 83.6408Z" fill="#B5EEFF"/>
<path d="M53.2858 68.4665C35.9855 83.616 16.8696 75.1713 9.47412 69.0553C2.5007 60.2396 -6.6818 38.4364 12.3755 21.7483C36.1972 0.888127 53.2064 18.2669 59.3982 25.3378C65.59 32.4086 74.9111 49.5297 53.2858 68.4665Z" fill="#B5EEFF"/>
<path d="M30.8879 36.451C30.4402 43.0301 26.8624 48.6893 23.9943 49.0315C21.1262 49.3736 14.3655 41.1036 14.7314 35.7265C15.0973 30.3494 18.9525 26.2298 21.6739 25.929C24.3952 25.6281 31.4475 28.2273 30.8879 36.451Z" fill="#030100"/>
<path d="M40.6797 47.6347C34.0991 47.2102 28.0171 50.0097 27.2995 52.8076C26.5818 55.6054 33.8872 63.3985 39.2655 63.7455C44.6439 64.0924 49.2362 60.8146 49.8936 58.1568C50.5511 55.499 48.9053 48.1654 40.6797 47.6347Z" fill="#030100"/>
<path d="M15.1113 57.4258C16.103 57.2515 18.2926 57.1386 19.1182 58.0814C19.9437 59.0242 19.4937 61.1236 19.1655 62.0555" stroke="#030100" stroke-width="2" stroke-linecap="round"/>
</svg>
