<svg width="109" height="152" viewBox="0 0 109 152" fill="none" xmlns="http://www.w3.org/2000/svg">
<path d="M22.6359 116.247C19.132 116.02 16.5668 111.675 15.7222 109.531C10.4459 114.907 -0.682062 125.708 -2.98333 125.911C-5.85992 126.164 -21.4028 105.584 -20.5234 102.343C-19.8199 99.7492 -9.75785 92.778 -4.81475 89.6166C-5.38391 89.3598 -7.53586 89.1982 -11.5904 90.6067C-16.6586 92.3672 -24.1357 93.9715 -24.2247 95.2852C-24.3136 96.5989 -27.5905 102.764 -28.2475 102.721C-28.7731 102.687 -28.3182 100.518 -28.0251 99.437C-29.613 100.69 -32.85 103.127 -33.095 102.847C-33.34 102.567 -32.3177 99.4885 -31.7759 97.9843L-34.888 100.092C-35.2969 100.175 -35.8456 99.9415 -34.7694 98.3399C-33.4241 96.338 -21.9259 88.9468 -17.4405 86.049C-12.9552 83.1511 8.32021 80.7922 8.23125 82.1059C8.16009 83.1569 15.0015 95.813 20.5782 101.159C20.4355 102.726 20.3541 106.093 21.1708 107.025L25.5604 112.038C26.275 112.854 35.2389 113.655 35.8959 113.698C36.4214 113.732 38.1896 112.307 39.0079 111.591C39.744 110.466 41.2978 108.309 41.6244 108.682C42.0328 109.148 40.6857 112.799 41.2703 112.287C41.8548 111.775 47.6969 109.955 47.6524 110.612C47.608 111.269 42.3784 113.789 42.3191 114.664C42.2598 115.54 48.4212 115.5 48.2598 116.259C48.0984 117.018 42.4474 117.641 40.9144 117.542C39.6881 117.463 37.2311 116.717 36.1559 116.354C33.1092 116.413 26.1398 116.474 22.6359 116.247Z" fill="#B5EEFF"/>
<path d="M73.6574 95.2566C49.7143 116.223 23.2468 104.523 13.006 96.0517C3.34819 83.8433 -9.37374 53.6526 17.0011 30.5568C49.9696 1.6869 73.5246 25.7554 82.0996 35.5478C90.6746 45.3402 103.586 69.0485 73.6574 95.2566Z" fill="#B5EEFF"/>
<path d="M42.6362 50.9203C42.0195 60.0287 37.0691 67.8623 33.0988 68.3347C29.1284 68.807 19.7652 57.3541 20.2693 49.9098C20.7734 42.4654 26.1087 36.7636 29.8759 36.3483C33.6431 35.933 43.4072 39.5348 42.6362 50.9203Z" fill="#030100"/>
<path d="M56.1972 66.4094C47.087 65.8187 38.6686 69.6918 37.6763 73.5651C36.6841 77.4384 46.801 88.2312 54.2468 88.714C61.6926 89.1969 68.0486 84.6608 68.9575 80.9814C69.8664 77.3019 67.5848 67.1479 56.1972 66.4094Z" fill="#030100"/>
<path d="M29.1078 84.0098C27.7351 84.2506 24.7039 84.4059 23.5605 83.1003C22.4172 81.7946 23.0393 78.8881 23.4932 77.5981" stroke="#030100" stroke-width="2" stroke-linecap="round"/>
</svg>
