<svg width="73" height="72" viewBox="0 0 100 98" fill="none" xmlns="http://www.w3.org/2000/svg">
<path d="M12.0381 19.7265C12.7414 22.8918 19.8383 31.8033 23.2989 35.8633C25.9074 33.433 31.9097 27.2551 35.05 21.9868C38.9755 15.4014 37.8224 8.93398 34.4627 8.33245C31.775 7.85124 27.8253 11.78 26.1864 13.8045C25.4205 10.9846 22.5092 5.61348 16.9917 6.68742C10.0947 8.02983 11.1589 15.77 12.0381 19.7265Z" fill="#E88484"/>
<path d="M49.8757 3.01917C41.2569 12.7727 49.0021 31.0703 53.9521 39C65.6961 28.295 91.7144 21.1127 80.0674 8.02878C74.2171 1.45668 63.3668 12.2374 60.6491 18.7794C60.6491 9.46202 58.4944 -6.73431 49.8757 3.01917Z" fill="#E88484"/>
<path d="M77.5494 39.8536C72.7441 48.9776 79.0233 67.9578 82.7636 76.3074C90.0743 62.5956 102.191 43.1759 97.2627 37.7447C93.7707 33.8964 88.939 38.6086 87.4979 41.195C86.1839 36.9462 82.3547 30.7296 77.5494 39.8536Z" fill="#E88484"/>
<path d="M39.6742 76.4615C32.7813 79.4788 23.3915 76.9845 19.5583 75.3602C19.1178 70.2392 21.0335 58.7731 32.2194 53.8765C43.4054 48.9799 51.7282 58.1856 54.4914 63.4006C54.4914 63.4006 48.2904 72.6897 39.6742 76.4615Z" fill="#77FFC6"/>
<path d="M44.2493 83.7401C34.0882 88.1881 24.852 88.9374 17.9914 88.3149C12.5578 87.8219 10.7317 81.8267 13.8662 77.3611C16.5749 73.5022 22.0263 72.4752 26.7212 72.9058C30.1194 73.2175 34.23 72.8229 38.6276 70.8978C43.247 68.8757 46.5975 66.4 48.9052 64.1341C51.7289 61.3615 55.7111 59.1788 59.6077 59.8693C64.1329 60.6711 66.9028 65.0381 64.208 68.7608C60.7629 73.5197 54.5691 79.2227 44.2493 83.7401Z" fill="#4D34C1"/>
<circle cx="22.3347" cy="80.8848" r="2.77209" transform="rotate(-23.6414 22.3347 80.8848)" fill="#C77DFF"/>
<circle cx="33.4094" cy="79.3223" r="2.77209" transform="rotate(-23.6414 33.4094 79.3223)" fill="#C77DFF"/>
<circle cx="46.2605" cy="73.5235" r="2.77209" transform="rotate(-23.6414 46.2605 73.5235)" fill="#C77DFF"/>
<circle cx="55.112" cy="66.8809" r="2.77209" transform="rotate(-23.6414 55.112 66.8809)" fill="#C77DFF"/>
</svg>
