<svg width="157" height="137" viewBox="0 0 157 137" fill="none" xmlns="http://www.w3.org/2000/svg">
<path d="M5.6104 29.8697C6.58754 34.2674 16.4479 46.6489 21.2559 52.2899C24.8802 48.9131 33.2196 40.3298 37.5828 33.0101C43.0367 23.8605 41.4346 14.8748 36.7668 14.039C33.0325 13.3704 27.5448 18.8289 25.2678 21.6417C24.2036 17.7239 20.1589 10.2613 12.4928 11.7534C2.91028 13.6186 4.38897 24.3726 5.6104 29.8697Z" fill="#E88484"/>
<path d="M59.4469 4.18039C47.334 17.6852 58.2192 43.0205 65.1759 54C81.6811 39.1777 118.247 29.233 101.878 11.1168C93.6564 2.01694 78.4073 16.9441 74.588 26.0022C74.588 13.1013 71.5597 -9.32442 59.4469 4.18039Z" fill="#E88484"/>
<path d="M24.1182 75.4082C17.4418 88.0849 26.1661 114.456 31.3627 126.056C41.5201 107.005 58.3546 80.0242 51.5074 72.4782C46.6558 67.1315 39.9426 73.6785 37.9404 77.2719C36.1148 71.3687 30.7945 62.7316 24.1182 75.4082Z" fill="#E88484"/>
<path d="M111.732 107.773C102.155 111.965 89.1091 108.5 83.7832 106.243C83.1713 99.1281 85.8328 83.1973 101.374 76.394C116.916 69.5908 128.48 82.3811 132.319 89.6266C132.319 89.6266 123.703 102.533 111.732 107.773Z" fill="#77FFC6"/>
<path d="M118.088 117.887C103.971 124.067 91.138 125.108 81.6061 124.243C74.0568 123.558 71.5197 115.228 75.8747 109.024C79.638 103.662 87.212 102.236 93.7351 102.834C98.4564 103.267 104.168 102.719 110.278 100.044C116.696 97.2345 121.351 93.7948 124.557 90.6466C128.48 86.7945 134.013 83.7618 139.427 84.7212C145.714 85.8353 149.563 91.9027 145.818 97.0749C141.032 103.687 132.426 111.61 118.088 117.887Z" fill="#4D34C1"/>
<circle cx="87.641" cy="113.919" r="3.85149" transform="rotate(-23.6414 87.641 113.919)" fill="#C77DFF"/>
<circle cx="103.027" cy="111.747" r="3.85149" transform="rotate(-23.6414 103.027 111.747)" fill="#C77DFF"/>
<circle cx="120.883" cy="103.691" r="3.85149" transform="rotate(-23.6414 120.883 103.691)" fill="#C77DFF"/>
<circle cx="133.181" cy="94.4642" r="3.85149" transform="rotate(-23.6414 133.181 94.4642)" fill="#C77DFF"/>
</svg>
