<svg width="191" height="44" viewBox="0 0 191 44" fill="none" xmlns="http://www.w3.org/2000/svg">
<path d="M9.0271 2.17358C8.99048 2.38924 8.93148 2.55607 8.8501 2.67407C8.76872 2.80835 8.65275 2.87549 8.5022 2.87549L6.87256 2.82666C6.50635 2.82666 6.23983 2.93449 6.073 3.15015C5.85734 3.43498 5.74951 3.9436 5.74951 4.67603V14.7224C5.74951 15.2921 5.80037 15.701 5.9021 15.9492C6.06893 16.3683 6.39242 16.5779 6.87256 16.5779L8.5022 16.5229C8.66903 16.5229 8.79313 16.5982 8.87451 16.7488C8.93962 16.9156 8.97217 17.117 8.97217 17.353C8.97217 17.585 8.93962 17.7681 8.87451 17.9023C8.79313 18.0326 8.63444 18.0977 8.39844 18.0977C7.95085 18.0977 7.2937 18.0732 6.427 18.0244C5.5603 17.9756 4.90112 17.9512 4.44946 17.9512L1.84937 18.0977C1.36515 18.0977 1.05794 18.0732 0.927734 18.0244C0.626628 17.9064 0.476074 17.648 0.476074 17.2493C0.476074 17.0824 0.516764 16.9156 0.598145 16.7488C0.667318 16.5982 0.777181 16.5229 0.927734 16.5229H2.87476C3.24097 16.5229 3.47493 16.2239 3.57666 15.6257C3.57666 15.6095 3.61735 15.3083 3.69873 14.7224V4.67603C3.56445 3.87443 3.48918 3.45736 3.4729 3.4248C3.34269 3.02604 3.05176 2.82666 2.6001 2.82666C2.58382 2.82666 2.50854 2.82666 2.37427 2.82666C2.23999 2.81038 2.04875 2.81038 1.80054 2.82666C1.31632 2.85921 1.02539 2.87549 0.927734 2.87549C0.760905 2.87549 0.642904 2.79207 0.57373 2.62524C0.49235 2.47469 0.45166 2.32414 0.45166 2.17358C0.45166 1.9091 0.551351 1.69344 0.750732 1.52661C0.950114 1.35978 1.2085 1.24992 1.52588 1.19702C2.09147 1.26619 2.52482 1.31706 2.82593 1.34961C3.72518 1.45133 4.26636 1.5022 4.44946 1.5022C4.71802 1.5022 5.3182 1.45947 6.25 1.37402C6.55111 1.35775 6.99259 1.31706 7.57446 1.25195C8.05868 1.25195 8.43302 1.31706 8.69751 1.44727C8.91724 1.58154 9.0271 1.77482 9.0271 2.0271C9.0271 2.07593 9.0271 2.12476 9.0271 2.17358Z" fill="black"/>
<path d="M103.367 38.4883C103.367 38.9688 103.204 39.3657 102.879 39.6792C102.557 39.9897 102.126 40.145 101.587 40.145C100.951 40.145 100.482 40.0132 100.181 39.7495C100.014 39.606 99.8467 39.3232 99.6797 38.9014C99.3545 39.335 98.9224 39.6646 98.3833 39.8901C97.8413 40.1304 97.2715 40.2505 96.6738 40.2505C95.8564 40.2505 95.1475 40.0044 94.5469 39.5122C93.9346 39.02 93.6284 38.3784 93.6284 37.5874C93.6284 36.4829 94.1323 35.7446 95.1401 35.3726C96.0894 35.1938 97.0386 35.0078 97.9878 34.8145C99.0073 34.5889 99.5171 34.104 99.5171 33.3599C99.5171 32.9263 99.3721 32.5835 99.082 32.3315C98.748 32.0444 98.269 31.9009 97.645 31.9009C97.2114 31.9009 96.8452 31.9551 96.5464 32.0635C96.2329 32.1719 95.9985 32.3813 95.8433 32.6919C95.8433 32.7534 95.9033 32.8267 96.0234 32.9116C96.1436 32.9937 96.2036 33.0698 96.2036 33.1401V33.8081C96.2036 33.9282 96.1084 34.0366 95.918 34.1333C95.7129 34.2417 95.5195 34.2959 95.3379 34.2959C95.0742 34.2959 94.8413 34.23 94.6392 34.0981C94.3491 33.9165 94.2041 33.6338 94.2041 33.25C94.2041 32.4473 94.5762 31.8174 95.3203 31.3604C95.9824 30.9531 96.7808 30.7495 97.7153 30.7495C98.7612 30.7495 99.5596 31.0132 100.11 31.5405C100.661 32.0679 100.937 32.8472 100.937 33.8784V38.3081C100.937 38.5483 101.008 38.7344 101.152 38.8662C101.287 39.0098 101.432 39.0815 101.587 39.0815C101.839 39.0815 102.006 38.9863 102.088 38.7959C102.173 38.6025 102.215 38.314 102.215 37.9302V37.0469C102.215 36.8799 102.27 36.7422 102.378 36.6338C102.486 36.5254 102.612 36.4712 102.756 36.4712C102.923 36.4712 103.066 36.5503 103.187 36.7085C103.307 36.8638 103.367 37.1025 103.367 37.4248V38.4883ZM99.4995 36.6162V35.3198C99.1274 35.6802 98.2148 35.9688 96.7617 36.1855C95.6221 36.3525 95.0522 36.7964 95.0522 37.5171C95.0522 37.936 95.2075 38.2773 95.5181 38.541C95.8198 38.8164 96.2578 38.9541 96.832 38.9541C97.6963 38.9541 98.3569 38.7505 98.814 38.3433C99.271 37.936 99.4995 37.3604 99.4995 36.6162ZM115.087 39.4946C115.087 39.6147 115.039 39.7231 114.942 39.8198C114.833 39.9282 114.713 39.9824 114.582 39.9824L110.512 40.0176C110.357 40.0176 110.225 39.9458 110.117 39.8022C110.02 39.6821 109.972 39.5503 109.972 39.4067C109.972 39.395 109.972 39.3833 109.972 39.3716C109.998 39.2515 110.052 39.1431 110.134 39.0464C110.208 38.9497 110.287 38.9014 110.372 38.9014C110.647 38.9014 110.88 38.9072 111.07 38.9189C111.264 38.9307 111.415 38.9497 111.523 38.9761C111.678 38.9761 111.779 38.9219 111.826 38.8135C111.864 38.7051 111.883 38.5366 111.883 38.3081C111.883 38.1646 111.883 38.062 111.883 38.0005V33.8433C111.883 33.2808 111.661 32.8135 111.215 32.4414C110.758 32.0811 110.225 31.9009 109.616 31.9009C108.845 31.9009 108.239 32.1646 107.796 32.6919C107.351 33.231 107.128 33.8843 107.128 34.6519V38.1104C107.128 38.3154 107.159 38.5073 107.221 38.686C107.268 38.8794 107.357 38.9761 107.489 38.9761C107.67 38.9497 107.868 38.9307 108.082 38.9189C108.299 38.9072 108.498 38.9014 108.68 38.9014C108.75 38.9014 108.82 38.9556 108.891 39.064C108.964 39.1724 109 39.2749 109 39.3716C109 39.5503 108.959 39.7056 108.877 39.8374C108.781 39.9692 108.642 40.0352 108.46 40.0352L104.285 40C104.153 40 104.051 39.9707 103.978 39.9121C103.896 39.8506 103.854 39.748 103.854 39.6045C103.878 39.4492 103.901 39.335 103.925 39.2617C104.021 39.0332 104.178 38.9014 104.395 38.8662C104.442 38.8545 104.496 38.8486 104.558 38.8486C104.689 38.8486 104.851 38.8662 105.041 38.9014C105.138 38.9131 105.27 38.938 105.437 38.9761C105.545 38.9761 105.636 38.8618 105.709 38.6333C105.768 38.4048 105.797 38.1821 105.797 37.9653V33.1797C105.797 32.8896 105.779 32.667 105.744 32.5117C105.671 32.248 105.568 32.1162 105.437 32.1162C105.425 32.1162 105.413 32.1162 105.401 32.1162C105.258 32.1396 105.083 32.1572 104.878 32.1689C104.665 32.1924 104.533 32.2041 104.483 32.2041C104.281 32.2041 104.149 32.1865 104.087 32.1514C103.967 32.0811 103.907 31.9126 103.907 31.646C103.907 31.3706 104.01 31.2036 104.215 31.145C104.49 31.1069 104.7 31.082 104.843 31.0703C104.878 31.0703 104.915 31.0703 104.953 31.0703C105.023 31.0703 105.113 31.0762 105.221 31.0879C105.365 31.126 105.461 31.145 105.511 31.145L106.61 31.0352C106.8 31.0352 106.919 31.2153 106.966 31.5757C106.98 31.6958 106.988 31.876 106.988 32.1162C107.418 31.6826 107.843 31.3647 108.262 31.1626C108.766 30.9106 109.312 30.7847 109.901 30.7847C110.851 30.7847 111.618 31.0425 112.204 31.5581C112.878 32.147 113.215 32.9937 113.215 34.0981V38.0005C113.215 38.3257 113.244 38.5659 113.303 38.7212C113.353 38.8911 113.455 38.9761 113.61 38.9761C113.789 38.9497 113.981 38.9307 114.186 38.9189C114.376 38.9072 114.545 38.9014 114.691 38.9014C114.858 38.9014 114.965 38.9556 115.012 39.064C115.062 39.1841 115.087 39.3276 115.087 39.4946ZM125.59 39.5518C125.59 39.6836 125.553 39.7861 125.48 39.8594C125.41 39.9297 125.328 39.9648 125.234 39.9648L122.821 40C122.604 40 122.496 39.9033 122.496 39.71V39.0112C122.197 39.4419 121.825 39.7598 121.38 39.9648C120.935 40.167 120.437 40.2681 119.886 40.2681C118.626 40.2681 117.612 39.8301 116.845 38.9541C116.065 38.0928 115.676 36.9414 115.676 35.5C115.676 35.0811 115.711 34.6914 115.781 34.3311C115.854 33.9707 115.963 33.5869 116.106 33.1797C116.417 32.4238 116.89 31.835 117.526 31.4131C118.165 31.0059 118.885 30.8022 119.688 30.8022C120.168 30.8022 120.636 30.8799 121.09 31.0352C121.318 31.1787 121.541 31.3354 121.758 31.5054C121.963 31.6841 122.161 31.8818 122.351 32.0986V30.2969C122.351 29.7695 122.309 29.3916 122.224 29.1631C122.13 28.9609 122.023 28.8599 121.903 28.8599C121.891 28.8599 121.879 28.8599 121.868 28.8599C121.771 28.8716 121.597 28.8833 121.345 28.895C121.081 28.9185 120.901 28.9302 120.804 28.9302C120.719 28.9302 120.647 28.8818 120.589 28.7852C120.516 28.6885 120.479 28.5273 120.479 28.3018C120.479 28.0967 120.551 27.9575 120.694 27.8843C120.826 27.8257 121.006 27.7964 121.235 27.7964L123.485 27.8315C123.605 27.8315 123.69 27.8916 123.74 28.0117C123.775 28.1318 123.792 28.2812 123.792 28.46C123.792 28.5801 123.792 28.665 123.792 28.7148C123.769 29.6377 123.751 30.3701 123.74 30.9121C123.69 32.8779 123.665 34.1436 123.665 34.709C123.665 35.0078 123.665 35.3198 123.665 35.645C123.653 35.979 123.647 36.3862 123.647 36.8667C123.647 37.1069 123.653 37.3354 123.665 37.5522C123.665 37.769 123.671 37.895 123.683 37.9302C123.683 38.2173 123.713 38.4575 123.775 38.6509C123.833 38.8413 123.959 38.9365 124.153 38.9365C124.308 38.9131 124.475 38.8955 124.654 38.8838C124.835 38.8721 125.004 38.8662 125.159 38.8662C125.326 38.8662 125.439 38.9321 125.498 39.064C125.559 39.1958 125.59 39.3584 125.59 39.5518ZM122.224 37.1216V33.7905C122.224 33.395 121.997 32.9995 121.542 32.604C121.039 32.1704 120.48 31.9536 119.868 31.9536C119.004 31.9536 118.332 32.2832 117.851 32.9424C117.359 33.6162 117.113 34.4146 117.113 35.3374C117.113 36.5972 117.39 37.5508 117.943 38.1982C118.436 38.7754 119.071 39.064 119.851 39.064C120.425 39.064 120.964 38.8662 121.468 38.4707C121.972 38.0752 122.224 37.6255 122.224 37.1216ZM144.93 36.8667C144.93 37.8511 144.576 38.6729 143.867 39.332C143.161 39.9941 142.31 40.3252 141.313 40.3252C140.077 40.3252 139.075 39.8931 138.308 39.0288C137.525 38.1763 137.134 37.0234 137.134 35.5703C137.134 34.1787 137.536 33.0273 138.338 32.1162C139.144 31.2051 140.177 30.7495 141.437 30.7495C142.339 30.7495 143.095 30.9824 143.704 31.4482C144.401 31.9785 144.75 32.6992 144.75 33.6104C144.75 33.9824 144.655 34.2944 144.464 34.5464C144.212 34.8833 143.833 35.0518 143.326 35.0518C143.089 35.0518 142.879 34.9551 142.698 34.7617C142.519 34.5713 142.43 34.356 142.43 34.1157C142.43 33.9458 142.507 33.7656 142.663 33.5752C142.806 33.3818 143.021 33.2852 143.309 33.2852C143.215 32.8545 142.975 32.5249 142.588 32.2964C142.204 32.0679 141.779 31.9536 141.313 31.9536C140.546 31.9536 139.903 32.2832 139.384 32.9424C138.857 33.6162 138.593 34.4746 138.593 35.5176C138.593 36.5605 138.839 37.4248 139.332 38.1104C139.812 38.8047 140.454 39.1519 141.256 39.1519C141.869 39.1519 142.421 38.8999 142.913 38.396C143.405 37.8921 143.651 37.3765 143.651 36.8491C143.651 36.729 143.729 36.6206 143.884 36.5239C144.042 36.4419 144.168 36.4009 144.262 36.4009C144.456 36.4009 144.618 36.4551 144.75 36.5635C144.87 36.6719 144.93 36.7729 144.93 36.8667ZM155.855 38.4883C155.855 38.9688 155.692 39.3657 155.367 39.6792C155.045 39.9897 154.614 40.145 154.075 40.145C153.439 40.145 152.971 40.0132 152.669 39.7495C152.502 39.606 152.335 39.3232 152.168 38.9014C151.843 39.335 151.411 39.6646 150.872 39.8901C150.33 40.1304 149.76 40.2505 149.162 40.2505C148.345 40.2505 147.636 40.0044 147.035 39.5122C146.423 39.02 146.117 38.3784 146.117 37.5874C146.117 36.4829 146.621 35.7446 147.628 35.3726C148.578 35.1938 149.527 35.0078 150.476 34.8145C151.496 34.5889 152.005 34.104 152.005 33.3599C152.005 32.9263 151.86 32.5835 151.57 32.3315C151.236 32.0444 150.757 31.9009 150.133 31.9009C149.7 31.9009 149.333 31.9551 149.035 32.0635C148.721 32.1719 148.487 32.3813 148.332 32.6919C148.332 32.7534 148.392 32.8267 148.512 32.9116C148.632 32.9937 148.692 33.0698 148.692 33.1401V33.8081C148.692 33.9282 148.597 34.0366 148.406 34.1333C148.201 34.2417 148.008 34.2959 147.826 34.2959C147.562 34.2959 147.33 34.23 147.127 34.0981C146.837 33.9165 146.692 33.6338 146.692 33.25C146.692 32.4473 147.064 31.8174 147.809 31.3604C148.471 30.9531 149.269 30.7495 150.204 30.7495C151.25 30.7495 152.048 31.0132 152.599 31.5405C153.149 32.0679 153.425 32.8472 153.425 33.8784V38.3081C153.425 38.5483 153.497 38.7344 153.64 38.8662C153.775 39.0098 153.92 39.0815 154.075 39.0815C154.327 39.0815 154.494 38.9863 154.576 38.7959C154.661 38.6025 154.704 38.314 154.704 37.9302V37.0469C154.704 36.8799 154.758 36.7422 154.866 36.6338C154.975 36.5254 155.101 36.4712 155.244 36.4712C155.411 36.4712 155.555 36.5503 155.675 36.7085C155.795 36.8638 155.855 37.1025 155.855 37.4248V38.4883ZM151.988 36.6162V35.3198C151.616 35.6802 150.703 35.9688 149.25 36.1855C148.11 36.3525 147.541 36.7964 147.541 37.5171C147.541 37.936 147.696 38.2773 148.006 38.541C148.308 38.8164 148.746 38.9541 149.32 38.9541C150.185 38.9541 150.845 38.7505 151.302 38.3433C151.759 37.936 151.988 37.3604 151.988 36.6162ZM162.785 36.6689C162.785 37.7266 162.659 38.5015 162.407 38.9937C162.023 39.7378 161.291 40.1099 160.21 40.1099C159.516 40.1099 158.917 39.9355 158.413 39.5869C157.859 39.2031 157.582 38.6992 157.582 38.0752V32.6919C157.582 32.6187 157.582 32.5469 157.582 32.4766C157.547 32.3564 157.428 32.2964 157.226 32.2964H156.668C156.463 32.2964 156.306 32.2305 156.198 32.0986C156.078 31.9668 156.018 31.8042 156.018 31.6108C156.018 31.4321 156.066 31.2827 156.163 31.1626C156.248 31.0542 156.391 31 156.593 31H157.296C157.417 31 157.488 30.9941 157.512 30.9824C157.585 30.9473 157.622 30.833 157.622 30.6396V28.7852C157.622 28.6064 157.693 28.4629 157.837 28.3545C157.969 28.2461 158.124 28.1919 158.303 28.1919C158.484 28.1919 158.641 28.2402 158.773 28.3369C158.893 28.4453 158.953 28.5947 158.953 28.7852V30.71C158.953 30.9033 159.06 31 159.274 31H161.238C161.455 31 161.616 31.0601 161.722 31.1802C161.83 31.3003 161.884 31.438 161.884 31.5933C161.884 31.7749 161.824 31.9375 161.704 32.0811C161.584 32.2246 161.417 32.2964 161.203 32.2964H159.204C159.06 32.2964 158.977 32.3389 158.953 32.4238C158.953 32.5439 158.953 32.6333 158.953 32.6919V37.082C158.953 37.624 159.037 38.0562 159.204 38.3784C159.42 38.8003 159.769 39.0112 160.25 39.0112C160.777 39.0112 161.149 38.6934 161.366 38.0576C161.509 37.6357 161.581 37.1436 161.581 36.5811C161.581 36.5078 161.581 36.4302 161.581 36.3481C161.581 36.3335 161.575 36.3203 161.563 36.3086C161.552 36.25 161.546 36.1958 161.546 36.146C161.546 35.9438 161.599 35.8003 161.704 35.7153C161.836 35.6187 161.999 35.5703 162.192 35.5703C162.444 35.5703 162.605 35.6304 162.675 35.7505C162.749 35.8706 162.785 36.0508 162.785 36.291C162.785 36.4609 162.785 36.5869 162.785 36.6689ZM171.223 37.4424C171.223 38.4033 170.862 39.1357 170.142 39.6396C169.506 40.085 168.647 40.3076 167.566 40.3076C166.931 40.3076 166.433 40.2285 166.072 40.0703C165.688 39.8447 165.365 39.6719 165.101 39.5518V40.0703C165.101 40.2285 165.047 40.3311 164.938 40.3779C164.833 40.4365 164.684 40.4658 164.49 40.4658C164.443 40.4805 164.401 40.4878 164.363 40.4878C164.254 40.4878 164.159 40.4453 164.077 40.3604C163.957 40.252 163.879 40.1084 163.844 39.9297C163.844 39.918 163.844 39.8989 163.844 39.8726C163.844 39.7788 163.862 39.5635 163.897 39.2266C163.909 39.0947 163.938 38.8853 163.985 38.5981C163.985 38.3696 163.961 38.0811 163.915 37.7324C163.868 37.3838 163.844 37.1201 163.844 36.9414C163.844 36.748 163.897 36.5796 164.002 36.436C164.099 36.3042 164.231 36.2383 164.398 36.2383C164.544 36.2383 164.684 36.2808 164.815 36.3657C164.936 36.4595 164.996 36.5796 164.996 36.7261L165.013 37.3896C165.013 37.9785 165.319 38.4341 165.932 38.7563C166.447 39.0347 167.052 39.1738 167.747 39.1738C168.227 39.1738 168.636 39.083 168.973 38.9014C169.368 38.6846 169.663 38.3491 169.856 37.895C169.868 37.8452 169.874 37.7734 169.874 37.6797C169.874 37.3545 169.777 37.0659 169.583 36.814C169.381 36.5737 169.118 36.4185 168.792 36.3481L165.536 35.645C165.27 35.5835 164.993 35.3975 164.706 35.0869C164.322 34.665 164.13 34.1787 164.13 33.6279C164.13 32.7285 164.473 32.0078 165.158 31.4658C165.841 30.9385 166.668 30.6748 167.641 30.6748C167.99 30.6748 168.331 30.729 168.665 30.8374C168.99 30.9575 169.302 31.1201 169.601 31.3252C169.601 31.0615 169.632 30.8696 169.693 30.7495C169.74 30.6411 169.907 30.5869 170.194 30.5869C170.353 30.5869 170.486 30.6045 170.594 30.6396C170.688 30.6748 170.735 30.7583 170.735 30.8901V33.9531C170.735 34.085 170.694 34.186 170.612 34.2563C170.515 34.3413 170.364 34.3838 170.159 34.3838C170.062 34.3838 169.942 34.3296 169.799 34.2212C169.644 34.1128 169.566 33.9751 169.566 33.8081C169.566 33.0874 169.351 32.5659 168.92 32.2437C168.548 31.9653 168.037 31.8262 167.386 31.8262C166.871 31.8262 166.44 31.9829 166.094 32.2964C165.746 32.6216 165.571 32.9819 165.571 33.3774C165.571 34.0132 166.039 34.438 166.973 34.6519C167.911 34.8687 168.835 35.0737 169.746 35.2671C170.73 35.6626 171.223 36.3877 171.223 37.4424ZM175.973 39.0112C175.973 39.3335 175.859 39.603 175.63 39.8198C175.405 40.0366 175.129 40.145 174.804 40.145C174.479 40.145 174.208 40.0308 173.991 39.8022C173.777 39.5737 173.67 39.2983 173.67 38.9761C173.67 38.6509 173.785 38.3799 174.013 38.1631C174.242 37.9463 174.517 37.8379 174.839 37.8379C175.165 37.8379 175.434 37.9521 175.648 38.1807C175.865 38.4092 175.973 38.686 175.973 39.0112ZM181.985 39.0112C181.985 39.3335 181.871 39.603 181.642 39.8198C181.417 40.0366 181.141 40.145 180.816 40.145C180.491 40.145 180.22 40.0308 180.003 39.8022C179.789 39.5737 179.682 39.2983 179.682 38.9761C179.682 38.6509 179.796 38.3799 180.025 38.1631C180.253 37.9463 180.529 37.8379 180.851 37.8379C181.176 37.8379 181.446 37.9521 181.66 38.1807C181.876 38.4092 181.985 38.686 181.985 39.0112ZM187.997 39.0112C187.997 39.3335 187.882 39.603 187.654 39.8198C187.428 40.0366 187.153 40.145 186.828 40.145C186.502 40.145 186.231 40.0308 186.015 39.8022C185.801 39.5737 185.694 39.2983 185.694 38.9761C185.694 38.6509 185.808 38.3799 186.037 38.1631C186.265 37.9463 186.541 37.8379 186.863 37.8379C187.188 37.8379 187.458 37.9521 187.671 38.1807C187.888 38.4092 187.997 38.686 187.997 39.0112Z" fill="black"/>
<path d="M69.0513 2.17358C69.0513 2.57642 69.0269 3.00977 68.978 3.47363C68.86 4.57633 68.801 5.31893 68.801 5.70142C68.801 5.9008 68.8173 6.16732 68.8499 6.50098C68.8824 6.83464 68.8987 7.0686 68.8987 7.20288C68.8987 7.49992 68.8234 7.7583 68.6729 7.97803C68.5223 8.20996 68.2904 8.32593 67.9771 8.32593C67.7248 8.32593 67.5152 8.27507 67.3484 8.17334C67.1653 8.07568 67.0737 7.90072 67.0737 7.64844C67.0737 7.40023 67.0819 7.02588 67.0981 6.52539C67.0981 6.04118 67.1063 5.5651 67.1226 5.09717C67.1226 4.19792 66.8743 3.59977 66.3779 3.30273C66.0443 3.09928 65.4258 2.99756 64.5225 2.99756C64.2417 2.99756 64.026 2.99756 63.8755 2.99756H61.8491C61.133 2.99756 60.6671 3.04028 60.4514 3.12573C59.9835 3.30884 59.7495 3.74219 59.7495 4.42578V7.84985C59.7495 8.11841 59.8329 8.30151 59.9998 8.39917C60.1503 8.51717 60.3334 8.57617 60.5491 8.57617H62.1482C62.5144 8.57617 62.8318 8.50903 63.1003 8.37476C63.3486 8.24048 63.4727 8.04924 63.4727 7.80103C63.4889 7.78475 63.4971 7.71761 63.4971 7.59961C63.4971 7.43278 63.4808 7.16626 63.4482 6.80005C63.4482 6.69832 63.4238 6.53963 63.375 6.32397C63.375 5.97404 63.4584 5.65869 63.6252 5.37793C63.7758 5.0931 63.9915 4.95068 64.2722 4.95068C64.5408 4.95068 64.7503 5.05851 64.9009 5.27417C65.0352 5.5061 65.1023 5.74821 65.1023 6.00049L64.9009 9.30249L65.1267 12.751C65.1267 13.1172 65.0596 13.4 64.9253 13.5994C64.7747 13.7987 64.5245 13.8984 64.1746 13.8984C63.7066 13.8984 63.4727 13.7153 63.4727 13.3491L63.3262 10.6758C63.2936 10.3421 62.9518 10.1753 62.3008 10.1753H60.7749C60.0913 10.1753 59.7495 10.4927 59.7495 11.1274V15.0764C59.7495 15.4426 59.8167 15.758 59.9509 16.0225C60.0689 16.291 60.252 16.4253 60.5002 16.4253C60.5165 16.4253 60.5918 16.4253 60.7261 16.4253C60.8766 16.4416 61.0923 16.4416 61.373 16.4253C61.9224 16.409 62.2153 16.4009 62.252 16.4009C62.5164 16.4009 62.7484 16.4599 62.9478 16.5779C63.1512 16.7081 63.2529 16.94 63.2529 17.2737C63.2692 17.3429 63.2773 17.4019 63.2773 17.4507C63.2773 17.6175 63.2021 17.7498 63.0515 17.8474C62.8359 17.998 62.551 18.0732 62.197 18.0732C61.5826 18.0732 61.0251 18.057 60.5247 18.0244C58.775 17.9064 57.8167 17.8474 57.6499 17.8474L55.8494 18.0488C55.2349 18.0488 54.8525 17.9817 54.7019 17.8474C54.5514 17.7335 54.4761 17.5097 54.4761 17.176C54.4761 17.0092 54.5249 16.8424 54.6226 16.6755C54.708 16.5087 54.8097 16.4253 54.9277 16.4253C55.2085 16.4253 55.5584 16.4416 55.9775 16.4741C56.3763 16.5067 56.5838 16.5229 56.6001 16.5229C56.6326 16.5229 56.6652 16.5229 56.6978 16.5229C57.0477 16.5229 57.2979 16.348 57.4485 15.998C57.6153 15.6318 57.6987 15.1903 57.6987 14.6736V4.67603C57.6987 4.11043 57.6906 3.77677 57.6743 3.67505C57.5767 3.10946 57.2186 2.82666 56.6001 2.82666L55.3245 2.85107C55.1251 2.85107 54.9338 2.76766 54.7507 2.60083C54.5676 2.434 54.4761 2.29972 54.4761 2.198C54.4761 1.84806 54.6165 1.58968 54.8972 1.42285C55.1658 1.2723 55.5157 1.19702 55.947 1.19702C56.5492 1.19702 57.1576 1.22347 57.772 1.27637C59.6071 1.42692 60.6243 1.5022 60.8237 1.5022L67.7268 1.25195C68.1418 1.25195 68.4653 1.34351 68.6973 1.52661C68.9333 1.70972 69.0513 1.92537 69.0513 2.17358ZM87.844 17.176C87.844 17.5585 87.6853 17.825 87.3679 17.9756C87.1523 18.0732 86.8186 18.1221 86.3669 18.1221C86.1838 18.1221 86.0496 18.1221 85.9641 18.1221C84.483 18.1221 83.484 17.8393 82.9673 17.2737C82.5319 16.8098 82.3142 16.0937 82.3142 15.1252V12.9768C82.3142 12.2403 82.123 11.6056 81.7405 11.0725C81.358 10.5395 80.8494 10.2729 80.2146 10.2729C80.1983 10.2567 79.9989 10.2404 79.6165 10.2241C79.234 10.2078 78.9837 10.1997 78.8657 10.1997C78.4995 10.1997 78.1923 10.1997 77.9441 10.1997C77.6918 10.1997 77.4578 10.2078 77.2422 10.2241C76.7091 10.2241 76.3592 10.2587 76.1924 10.3279C75.875 10.4581 75.7163 10.7572 75.7163 11.2251V14.6248C75.7163 15.1741 75.7997 15.6156 75.9666 15.9492C76.1334 16.2992 76.408 16.4741 76.7905 16.4741C76.7905 16.4741 76.8251 16.4741 76.8943 16.4741C77.0082 16.4741 77.232 16.466 77.5657 16.4497C77.8831 16.4334 78.1252 16.4253 78.292 16.4253C78.3734 16.4253 78.4324 16.4253 78.469 16.4253C78.6358 16.4253 78.7599 16.5168 78.8413 16.7C78.9268 16.8993 78.9776 17.0417 78.9939 17.1272C78.9939 17.1597 78.9939 17.1923 78.9939 17.2249C78.9939 17.4405 78.9268 17.6236 78.7925 17.7742C78.6257 17.9573 78.3998 18.0488 78.115 18.0488C77.6348 18.0488 76.9187 18.0163 75.9666 17.9512C75.0185 17.882 74.3695 17.8474 74.0195 17.8474C73.7347 17.8474 73.3665 17.8739 72.9148 17.9268C72.4672 17.9756 72.1335 18 71.9138 18C71.6656 18 71.4825 18 71.3645 18C71.0675 18 70.8518 17.9491 70.7175 17.8474C70.5344 17.7009 70.4429 17.4344 70.4429 17.0479C70.4429 16.9339 70.4998 16.8017 70.6138 16.6511C70.7155 16.5006 70.8172 16.4253 70.9189 16.4253C71.2689 16.4253 71.5842 16.4334 71.865 16.4497C72.1498 16.466 72.3838 16.4904 72.5669 16.5229C72.868 16.5229 73.102 16.4151 73.2688 16.1995C73.5007 15.8821 73.6167 15.3735 73.6167 14.6736V4.67603C73.6167 4.09009 73.5577 3.65674 73.4397 3.37598C73.2729 2.97721 72.9819 2.77783 72.5669 2.77783C72.5506 2.77783 72.4916 2.77783 72.3899 2.77783C72.2922 2.75749 72.1437 2.75749 71.9443 2.77783C71.5415 2.81038 71.1916 2.84294 70.8945 2.87549C70.7277 2.87549 70.6097 2.78394 70.5405 2.60083C70.4591 2.434 70.4185 2.27531 70.4185 2.12476C70.4185 1.74227 70.5588 1.48389 70.8396 1.34961C71.1244 1.23161 71.4581 1.17261 71.8406 1.17261C72.1254 1.17261 72.6849 1.23161 73.519 1.34961C73.9992 1.41471 74.3308 1.44727 74.5139 1.44727C75.1161 1.41471 75.6003 1.3903 75.9666 1.37402C77.1832 1.30892 78.408 1.23364 79.6409 1.14819C81.358 1.14819 82.7252 1.50627 83.7424 2.22241C84.7434 2.94263 85.2439 4.0026 85.2439 5.40234C85.2439 6.61898 84.8675 7.57723 84.1147 8.2771C83.4678 8.87524 82.5929 9.26587 81.4902 9.44897C82.4912 9.6158 83.1829 9.89046 83.5654 10.2729C84.131 10.8263 84.4138 11.7927 84.4138 13.1721V14.9238C84.4138 15.29 84.4728 15.6156 84.5908 15.9004C84.6925 16.2015 84.8919 16.3521 85.189 16.3521C85.3924 16.3521 85.7769 16.3602 86.3425 16.3765C86.9081 16.3927 87.2418 16.4009 87.3435 16.4009C87.5266 16.4009 87.6589 16.468 87.7402 16.6023C87.8094 16.7488 87.844 16.94 87.844 17.176ZM83.1931 5.5C83.1931 4.61702 82.8757 3.92529 82.241 3.4248C81.6062 2.92432 80.6561 2.67407 79.3906 2.67407C79.175 2.6578 79 2.64966 78.8657 2.64966C78.7681 2.64966 78.6847 2.6578 78.6155 2.67407C77.7162 2.67407 77.0509 2.76562 76.6196 2.94873C76.0174 3.20101 75.7163 3.6425 75.7163 4.27319V8.22217C75.7163 8.32389 75.7997 8.41748 75.9666 8.50293C76.1171 8.58431 76.2677 8.625 76.4182 8.625H78.7681C81.7181 8.625 83.1931 7.58333 83.1931 5.5ZM103.408 9.65039C103.408 12.1162 102.875 14.1243 101.809 15.6746C100.527 17.5585 98.6106 18.5005 96.0593 18.5005C93.7766 18.5005 91.9842 17.6257 90.6821 15.876C89.4818 14.2606 88.8816 12.1854 88.8816 9.65039C88.8816 7.16829 89.4818 5.11751 90.6821 3.49805C92.033 1.68327 93.9007 0.775879 96.2852 0.775879C98.5841 0.775879 100.366 1.63444 101.632 3.35156C102.816 4.95068 103.408 7.05029 103.408 9.65039ZM101.156 9.55273C101.156 7.59961 100.814 5.99845 100.13 4.74927C99.284 3.19897 97.984 2.42383 96.2302 2.42383C94.5009 2.42383 93.1846 3.20711 92.2812 4.77368C91.5163 6.12459 91.1338 7.84172 91.1338 9.92505C91.1338 11.7602 91.5244 13.3023 92.3057 14.5515C93.209 15.9838 94.4602 16.7 96.0593 16.7C97.7927 16.7 99.109 15.9411 100.008 14.4233C100.773 13.1416 101.156 11.5181 101.156 9.55273ZM122.152 2.12476C122.152 2.45841 122.093 2.68424 121.975 2.80225C121.841 2.93245 121.657 2.99756 121.426 2.99756C121.21 2.99756 120.992 2.98942 120.772 2.97314C120.541 2.97314 120.325 2.96501 120.125 2.94873C119.942 2.94873 119.776 3.10742 119.625 3.4248C119.458 3.75846 119.375 4.19181 119.375 4.72485V16.1018C119.375 16.8505 119.216 17.4344 118.899 17.8535C118.581 18.2686 118.183 18.4761 117.702 18.4761C117.3 18.4761 116.907 18.3255 116.524 18.0244C116.142 17.7233 115.825 17.29 115.572 16.7244L109.573 3.10132V15.3755C109.573 15.758 109.656 16.057 109.823 16.2727C109.99 16.5087 110.266 16.6267 110.653 16.6267C110.669 16.6267 110.694 16.6267 110.726 16.6267C110.824 16.6267 111.039 16.6104 111.373 16.5779C111.808 16.5413 112.059 16.5229 112.124 16.5229C112.376 16.5229 112.559 16.6064 112.673 16.7732C112.791 16.94 112.85 17.1069 112.85 17.2737C112.85 17.8596 112.551 18.1526 111.953 18.1526C111.517 18.1526 111.041 18.1261 110.525 18.0732C109.308 17.9593 108.484 17.9023 108.053 17.9023C107.902 17.9023 107.493 17.9512 106.826 18.0488C106.61 18.0814 106.285 18.1322 105.849 18.2014C105.418 18.2014 105.084 18.1343 104.848 18C104.6 17.8657 104.476 17.6236 104.476 17.2737C104.476 17.1394 104.517 16.9807 104.598 16.7976C104.684 16.6145 104.81 16.5229 104.977 16.5229C105.257 16.5229 105.599 16.5494 106.002 16.6023C106.384 16.6511 106.584 16.6755 106.6 16.6755C106.633 16.6755 106.665 16.6755 106.698 16.6755C106.966 16.6755 107.192 16.5494 107.375 16.2971C107.558 16.0164 107.65 15.5098 107.65 14.7773V4.72485C107.65 4.15926 107.558 3.70964 107.375 3.37598C107.192 3.04232 106.934 2.87549 106.6 2.87549C106.433 2.89176 106.183 2.90804 105.849 2.92432C105.499 2.94059 105.192 2.94873 104.928 2.94873C104.777 2.94873 104.659 2.88159 104.574 2.74731C104.492 2.61711 104.452 2.42586 104.452 2.17358C104.452 1.95793 104.559 1.74227 104.775 1.52661C104.991 1.30688 105.241 1.19702 105.526 1.19702C105.725 1.24992 105.992 1.29264 106.325 1.3252C106.643 1.35775 107.143 1.37402 107.827 1.37402C108.327 1.37402 108.753 1.35775 109.103 1.3252C109.452 1.29264 109.735 1.26009 109.951 1.22754C110.301 1.22754 110.584 1.34351 110.799 1.57544C110.917 1.70972 111.092 1.99251 111.324 2.42383L117.525 16.4009V5.75024C117.525 5.61597 117.525 5.50814 117.525 5.42676C117.525 4.80827 117.466 4.2915 117.348 3.87646C117.165 3.20915 116.85 2.87549 116.402 2.87549L115.047 2.92432C114.815 2.92432 114.624 2.85921 114.474 2.729C114.323 2.59473 114.248 2.42586 114.248 2.22241C114.248 1.87248 114.382 1.63241 114.651 1.5022C114.915 1.36792 115.257 1.30078 115.676 1.30078C115.924 1.34961 116.24 1.3903 116.622 1.42285C116.992 1.47575 117.493 1.5022 118.124 1.5022C118.376 1.5022 118.852 1.46761 119.552 1.39844C120.252 1.34961 120.768 1.3252 121.102 1.3252C121.468 1.3252 121.692 1.34147 121.773 1.37402C122.026 1.47575 122.152 1.72599 122.152 2.12476ZM137.752 7.34937C137.752 7.6993 137.71 7.94141 137.624 8.07568C137.49 8.27507 137.215 8.37476 136.8 8.37476C136.467 8.37476 136.249 8.30762 136.147 8.17334C135.964 7.92513 135.873 7.3514 135.873 6.45215C135.873 5.75228 135.881 5.20907 135.897 4.82251C135.897 4.44002 135.915 4.06567 135.952 3.69946C135.952 3.34953 135.826 3.10742 135.573 2.97314C135.325 2.84294 135.059 2.77783 134.774 2.77783H133.053C132.385 2.77783 131.952 2.93449 131.753 3.2478C131.618 3.46753 131.517 3.91919 131.448 4.60278V14.6736C131.448 15.2595 131.507 15.6929 131.625 15.9736C131.791 16.3765 132.058 16.5779 132.424 16.5779C132.473 16.5779 132.524 16.5779 132.577 16.5779C132.825 16.5779 133.057 16.5677 133.272 16.5474C133.492 16.5474 133.81 16.5229 134.225 16.4741C134.391 16.4741 134.507 16.5331 134.573 16.6511C134.642 16.7651 134.676 16.9563 134.676 17.2249C134.676 17.3917 134.617 17.5667 134.499 17.7498C134.365 17.9491 134.223 18.0488 134.072 18.0488C133.458 18.0488 132.682 18.0244 131.747 17.9756C130.815 17.9268 130.341 17.9023 130.324 17.9023C130.276 17.9023 130.217 17.9023 130.147 17.9023C129.883 17.9023 129.417 17.9268 128.75 17.9756C128.465 17.9919 128.056 18.0326 127.523 18.0977C127.124 18.0977 126.791 18.0244 126.522 17.8779C126.257 17.7437 126.125 17.5097 126.125 17.176C126.125 17.0743 126.176 16.9319 126.278 16.7488C126.359 16.5657 126.467 16.4741 126.601 16.4741C126.935 16.4741 127.234 16.4823 127.499 16.4985C127.767 16.5148 128.025 16.5494 128.274 16.6023C128.742 16.6023 129.059 16.3927 129.226 15.9736C129.344 15.6929 129.403 15.2677 129.403 14.698V4.57227C129.403 3.90902 129.277 3.45125 129.024 3.19897C128.776 2.95076 128.426 2.82666 127.975 2.82666H126.223C125.926 2.82666 125.651 2.90194 125.399 3.05249C125.134 3.19897 125.002 3.39836 125.002 3.65063L125.051 6.42773C125.051 6.72477 125.051 6.93229 125.051 7.05029C125.051 7.58333 125.008 7.93327 124.923 8.1001C124.793 8.34831 124.51 8.47241 124.074 8.47241C123.908 8.47241 123.733 8.39917 123.55 8.25269C123.366 8.10213 123.25 7.90072 123.202 7.64844C123.185 7.58333 123.177 7.4755 123.177 7.32495C123.177 7.02384 123.202 6.58236 123.25 6.00049C123.25 5.84993 123.275 5.63224 123.324 5.34741C123.324 5.08293 123.307 4.60075 123.275 3.90088C123.226 3.21729 123.202 2.59269 123.202 2.0271C123.202 1.74227 123.35 1.54085 123.647 1.42285C123.948 1.30892 124.317 1.25195 124.752 1.25195L130.349 1.39844C131.382 1.33333 132.182 1.29264 132.748 1.27637C134.481 1.19092 135.673 1.14819 136.324 1.14819C136.825 1.14819 137.183 1.21533 137.398 1.34961C137.618 1.48389 137.728 1.69141 137.728 1.97217C137.728 2.40755 137.702 2.99146 137.649 3.72388C137.6 4.4563 137.575 4.98934 137.575 5.323C137.575 5.441 137.616 5.8418 137.698 6.52539C137.734 6.78988 137.752 7.06453 137.752 7.34937ZM153.231 17.176C153.231 17.4934 153.074 17.7355 152.761 17.9023C152.492 18.0326 152.291 18.0977 152.157 18.0977C152.124 18.0977 152.092 18.0977 152.059 18.0977C151.925 18.0651 150.617 18.0081 148.135 17.9268C147.317 17.9105 146.084 17.8678 144.436 17.7986C143.935 17.7986 143.026 17.8413 141.708 17.9268C141.276 17.943 140.668 17.9837 139.883 18.0488C139.415 18.0488 139.073 18 138.857 17.9023C138.625 17.8006 138.509 17.5585 138.509 17.176C138.509 17.0092 138.558 16.8424 138.656 16.6755C138.741 16.5087 138.859 16.4253 139.01 16.4253C139.376 16.4253 139.699 16.4334 139.98 16.4497C140.249 16.466 140.466 16.4904 140.633 16.5229C140.666 16.5229 140.698 16.5229 140.731 16.5229C141.081 16.5229 141.331 16.348 141.482 15.998C141.649 15.6318 141.732 15.1903 141.732 14.6736V4.67603C141.732 3.89071 141.649 3.38208 141.482 3.15015C141.299 2.93449 141.016 2.82666 140.633 2.82666L138.961 2.87549C138.843 2.87549 138.741 2.78394 138.656 2.60083C138.558 2.434 138.509 2.29972 138.509 2.198C138.509 1.78296 138.633 1.5083 138.882 1.37402C139.118 1.25602 139.468 1.19702 139.931 1.19702C140.534 1.19702 141.142 1.22347 141.756 1.27637C143.608 1.42692 144.641 1.5022 144.857 1.5022C146.358 1.43302 147.483 1.3903 148.232 1.37402C150.515 1.29264 151.74 1.25195 151.906 1.25195C152.191 1.25195 152.458 1.32723 152.706 1.47778C152.958 1.62427 153.084 1.8562 153.084 2.17358C153.084 2.6578 153.042 3.24984 152.956 3.94971C152.875 4.64958 152.834 5.23348 152.834 5.70142L152.932 6.89771C152.932 7.31681 152.883 7.6342 152.785 7.84985C152.635 8.16724 152.376 8.32593 152.01 8.32593C151.758 8.32593 151.548 8.27507 151.382 8.17334C151.198 8.07568 151.107 7.90072 151.107 7.64844L151.156 5.09717C151.156 4.49902 151.107 4.08398 151.009 3.85205C150.794 3.35156 150.36 3.10132 149.709 3.10132L145.882 2.99756C145.101 2.99756 144.56 3.08911 144.259 3.27222C143.941 3.45939 143.783 3.84391 143.783 4.42578V7.84985C143.783 8.11841 143.866 8.30151 144.033 8.39917C144.184 8.51717 144.367 8.57617 144.582 8.57617H146.181C146.499 8.57617 146.798 8.49276 147.079 8.32593C147.363 8.1591 147.506 7.98413 147.506 7.80103L147.408 6.32397C147.408 5.97404 147.492 5.65869 147.658 5.37793C147.809 5.0931 148.025 4.95068 148.305 4.95068C148.59 4.95068 148.808 5.05851 148.958 5.27417C149.093 5.48983 149.16 5.7238 149.16 5.97607C149.091 6.69222 149.048 7.24154 149.032 7.62402C148.934 8.92611 148.885 9.62598 148.885 9.72363C148.885 9.99219 148.926 10.5252 149.007 11.3228C149.024 11.5913 149.074 11.9921 149.16 12.5251C149.16 12.9076 149.144 13.1579 149.111 13.2759C148.993 13.6909 148.7 13.8984 148.232 13.8984C148.065 13.8984 147.899 13.8496 147.732 13.752C147.565 13.6502 147.481 13.516 147.481 13.3491L147.359 10.6758C147.359 10.5741 147.268 10.4662 147.085 10.3523C146.885 10.2343 146.635 10.1753 146.334 10.1753H144.808C144.125 10.1753 143.783 10.4927 143.783 11.1274V15.0764C143.783 15.4426 143.85 15.758 143.984 16.0225C144.102 16.291 144.285 16.4253 144.533 16.4253L149.856 16.2483C150.442 16.2483 150.859 16.0062 151.107 15.522C151.29 15.172 151.382 14.7143 151.382 14.1487C151.382 13.9167 151.373 13.7255 151.357 13.575C151.357 13.5261 151.341 13.4508 151.308 13.3491L151.26 11.7012C151.26 11.5181 151.351 11.3594 151.534 11.2251C151.717 11.0908 151.925 11.0237 152.157 11.0237C152.442 11.0237 152.667 11.158 152.834 11.4265C153.001 11.7073 153.084 12.0145 153.084 12.3481C153.084 12.4824 153.068 12.692 153.036 12.9768C152.999 13.2576 152.981 13.4814 152.981 13.6482C152.981 14.165 153.023 14.816 153.109 15.6013C153.19 16.3988 153.231 16.9237 153.231 17.176ZM172.152 2.12476C172.152 2.45841 172.093 2.68424 171.975 2.80225C171.841 2.93245 171.657 2.99756 171.426 2.99756C171.21 2.99756 170.992 2.98942 170.772 2.97314C170.541 2.97314 170.325 2.96501 170.125 2.94873C169.942 2.94873 169.776 3.10742 169.625 3.4248C169.458 3.75846 169.375 4.19181 169.375 4.72485V16.1018C169.375 16.8505 169.216 17.4344 168.899 17.8535C168.581 18.2686 168.183 18.4761 167.702 18.4761C167.3 18.4761 166.907 18.3255 166.524 18.0244C166.142 17.7233 165.825 17.29 165.572 16.7244L159.573 3.10132V15.3755C159.573 15.758 159.656 16.057 159.823 16.2727C159.99 16.5087 160.266 16.6267 160.653 16.6267C160.669 16.6267 160.694 16.6267 160.726 16.6267C160.824 16.6267 161.039 16.6104 161.373 16.5779C161.808 16.5413 162.059 16.5229 162.124 16.5229C162.376 16.5229 162.559 16.6064 162.673 16.7732C162.791 16.94 162.85 17.1069 162.85 17.2737C162.85 17.8596 162.551 18.1526 161.953 18.1526C161.517 18.1526 161.041 18.1261 160.525 18.0732C159.308 17.9593 158.484 17.9023 158.053 17.9023C157.902 17.9023 157.493 17.9512 156.826 18.0488C156.61 18.0814 156.285 18.1322 155.849 18.2014C155.418 18.2014 155.084 18.1343 154.848 18C154.6 17.8657 154.476 17.6236 154.476 17.2737C154.476 17.1394 154.517 16.9807 154.598 16.7976C154.684 16.6145 154.81 16.5229 154.977 16.5229C155.257 16.5229 155.599 16.5494 156.002 16.6023C156.384 16.6511 156.584 16.6755 156.6 16.6755C156.633 16.6755 156.665 16.6755 156.698 16.6755C156.966 16.6755 157.192 16.5494 157.375 16.2971C157.558 16.0164 157.65 15.5098 157.65 14.7773V4.72485C157.65 4.15926 157.558 3.70964 157.375 3.37598C157.192 3.04232 156.934 2.87549 156.6 2.87549C156.433 2.89176 156.183 2.90804 155.849 2.92432C155.499 2.94059 155.192 2.94873 154.928 2.94873C154.777 2.94873 154.659 2.88159 154.574 2.74731C154.492 2.61711 154.452 2.42586 154.452 2.17358C154.452 1.95793 154.559 1.74227 154.775 1.52661C154.991 1.30688 155.241 1.19702 155.526 1.19702C155.725 1.24992 155.992 1.29264 156.325 1.3252C156.643 1.35775 157.143 1.37402 157.827 1.37402C158.327 1.37402 158.753 1.35775 159.103 1.3252C159.452 1.29264 159.735 1.26009 159.951 1.22754C160.301 1.22754 160.584 1.34351 160.799 1.57544C160.917 1.70972 161.092 1.99251 161.324 2.42383L167.525 16.4009V5.75024C167.525 5.61597 167.525 5.50814 167.525 5.42676C167.525 4.80827 167.466 4.2915 167.348 3.87646C167.165 3.20915 166.85 2.87549 166.402 2.87549L165.047 2.92432C164.815 2.92432 164.624 2.85921 164.474 2.729C164.323 2.59473 164.248 2.42586 164.248 2.22241C164.248 1.87248 164.382 1.63241 164.651 1.5022C164.915 1.36792 165.257 1.30078 165.676 1.30078C165.924 1.34961 166.24 1.3903 166.622 1.42285C166.992 1.47575 167.493 1.5022 168.124 1.5022C168.376 1.5022 168.852 1.46761 169.552 1.39844C170.252 1.34961 170.768 1.3252 171.102 1.3252C171.468 1.3252 171.692 1.34147 171.773 1.37402C172.026 1.47575 172.152 1.72599 172.152 2.12476ZM189.974 9.6748C189.974 12.043 189.482 13.8923 188.497 15.2229C187.683 16.3256 186.501 17.1089 184.951 17.5728C183.783 17.9227 182.383 18.0977 180.752 18.0977C180.467 18.0977 180.174 18.0814 179.873 18.0488C179.576 18.0163 179.301 17.9837 179.049 17.9512C178.349 17.9512 177.641 17.9512 176.925 17.9512C176.192 17.9674 175.417 18.0163 174.599 18.0977C174.066 18.0977 173.7 18.0244 173.501 17.8779C173.301 17.7437 173.202 17.5178 173.202 17.2004C173.202 17.0336 173.234 16.8668 173.299 16.7C173.364 16.5494 173.491 16.4741 173.678 16.4741C174.109 16.4741 174.457 16.4823 174.721 16.4985C174.99 16.5148 175.2 16.5413 175.35 16.5779C175.716 16.5779 175.983 16.3948 176.15 16.0286C176.316 15.6583 176.4 15.2229 176.4 14.7224V4.67603C176.4 4.11043 176.349 3.7015 176.247 3.44922C176.101 3.06673 175.802 2.87549 175.35 2.87549H173.678C173.527 2.87549 173.409 2.80021 173.324 2.64966C173.242 2.4991 173.202 2.34041 173.202 2.17358C173.202 1.9091 173.259 1.6853 173.373 1.5022C173.491 1.33537 173.708 1.25195 174.026 1.25195C174.457 1.25195 174.949 1.27637 175.503 1.3252C176.801 1.4432 177.608 1.5022 177.926 1.5022C178.325 1.5022 179.024 1.46761 180.025 1.39844C181.01 1.33333 181.643 1.30078 181.924 1.30078C184.54 1.30078 186.556 2.0922 187.972 3.67505C189.307 5.17651 189.974 7.17643 189.974 9.6748ZM187.801 9.57715C187.801 7.52637 187.36 5.97607 186.477 4.92627C185.39 3.64046 183.614 2.99756 181.148 2.99756C179.932 2.99756 179.165 3.11556 178.847 3.35156C178.648 3.50212 178.548 3.86019 178.548 4.42578V14.9727C178.548 15.3226 178.591 15.6156 178.677 15.8516C178.742 16.0998 178.925 16.2402 179.226 16.2727C179.527 16.3256 179.793 16.3602 180.025 16.3765C180.843 16.4741 181.393 16.5229 181.673 16.5229C183.724 16.5229 185.274 15.8984 186.324 14.6492C187.309 13.4651 187.801 11.7744 187.801 9.57715Z" fill="black"/>
<path fill-rule="evenodd" clip-rule="evenodd" d="M31.9356 22.9999C35.957 20.8921 43.9999 15.2802 43.9999 9.69457C43.9999 2.71257 40.737 1 37.7316 1C34.9431 1 32.3393 3.53296 31.9782 4.3544C31.4867 3.45457 28.9639 1.08773 26.2683 1.08773C23.2629 1.08773 20 2.80029 20 9.7823C20 15.3679 27.9141 20.892 31.9355 22.9998C31.9356 22.9996 31.9356 22.9993 31.9356 22.9991C31.9356 22.9994 31.9356 22.9996 31.9356 22.9999Z" fill="#D72428"/>
</svg>
