<svg width="440" height="72" viewBox="0 0 440 72" fill="none" xmlns="http://www.w3.org/2000/svg">
<path d="M21.665 4.0166C21.5771 4.53418 21.4355 4.93457 21.2402 5.21777C21.0449 5.54004 20.7666 5.70117 20.4053 5.70117L16.4941 5.58398C15.6152 5.58398 14.9756 5.84277 14.5752 6.36035C14.0576 7.04395 13.7988 8.26465 13.7988 10.0225V34.1338C13.7988 35.501 13.9209 36.4824 14.165 37.0781C14.5654 38.084 15.3418 38.5869 16.4941 38.5869L20.4053 38.4551C20.8057 38.4551 21.1035 38.6357 21.2988 38.9971C21.4551 39.3975 21.5332 39.8809 21.5332 40.4473C21.5332 41.0039 21.4551 41.4434 21.2988 41.7656C21.1035 42.0781 20.7227 42.2344 20.1562 42.2344C19.082 42.2344 17.5049 42.1758 15.4248 42.0586C13.3447 41.9414 11.7627 41.8828 10.6787 41.8828L4.43848 42.2344C3.27637 42.2344 2.53906 42.1758 2.22656 42.0586C1.50391 41.7754 1.14258 41.1553 1.14258 40.1982C1.14258 39.7979 1.24023 39.3975 1.43555 38.9971C1.60156 38.6357 1.86523 38.4551 2.22656 38.4551H6.89941C7.77832 38.4551 8.33984 37.7373 8.58398 36.3018C8.58398 36.2627 8.68164 35.54 8.87695 34.1338V10.0225C8.55469 8.09863 8.37402 7.09766 8.33496 7.01953C8.02246 6.0625 7.32422 5.58398 6.24023 5.58398C6.20117 5.58398 6.02051 5.58398 5.69824 5.58398C5.37598 5.54492 4.91699 5.54492 4.32129 5.58398C3.15918 5.66211 2.46094 5.70117 2.22656 5.70117C1.82617 5.70117 1.54297 5.50098 1.37695 5.10059C1.18164 4.73926 1.08398 4.37793 1.08398 4.0166C1.08398 3.38184 1.32324 2.86426 1.80176 2.46387C2.28027 2.06348 2.90039 1.7998 3.66211 1.67285C5.01953 1.83887 6.05957 1.96094 6.78223 2.03906C8.94043 2.2832 10.2393 2.40527 10.6787 2.40527C11.3232 2.40527 12.7637 2.30273 15 2.09766C15.7227 2.05859 16.7822 1.96094 18.1787 1.80469C19.3408 1.80469 20.2393 1.96094 20.874 2.27344C21.4014 2.5957 21.665 3.05957 21.665 3.66504C21.665 3.78223 21.665 3.89941 21.665 4.0166Z" fill="black"/>
<path d="M147.123 4.0166C147.123 4.9834 147.064 6.02344 146.947 7.13672C146.664 9.7832 146.522 11.5654 146.522 12.4834C146.522 12.9619 146.562 13.6016 146.64 14.4023C146.718 15.2031 146.757 15.7646 146.757 16.0869C146.757 16.7998 146.576 17.4199 146.215 17.9473C145.854 18.5039 145.297 18.7822 144.545 18.7822C143.939 18.7822 143.437 18.6602 143.036 18.416C142.597 18.1816 142.377 17.7617 142.377 17.1562C142.377 16.5605 142.396 15.6621 142.436 14.4609C142.436 13.2988 142.455 12.1563 142.494 11.0332C142.494 8.875 141.898 7.43945 140.707 6.72656C139.906 6.23828 138.422 5.99414 136.254 5.99414C135.58 5.99414 135.062 5.99414 134.701 5.99414H129.838C128.119 5.99414 127.001 6.09668 126.483 6.30176C125.36 6.74121 124.799 7.78125 124.799 9.42188V17.6396C124.799 18.2842 124.999 18.7236 125.399 18.958C125.761 19.2412 126.2 19.3828 126.718 19.3828H130.556C131.435 19.3828 132.196 19.2217 132.841 18.8994C133.437 18.5771 133.734 18.1182 133.734 17.5225C133.773 17.4834 133.793 17.3223 133.793 17.0391C133.793 16.6387 133.754 15.999 133.676 15.1201C133.676 14.876 133.617 14.4951 133.5 13.9775C133.5 13.1377 133.7 12.3809 134.101 11.707C134.462 11.0234 134.979 10.6816 135.653 10.6816C136.298 10.6816 136.801 10.9404 137.162 11.458C137.484 12.0146 137.646 12.5957 137.646 13.2012L137.162 21.126L137.704 29.4023C137.704 30.2812 137.543 30.96 137.221 31.4385C136.859 31.917 136.259 32.1562 135.419 32.1562C134.296 32.1562 133.734 31.7168 133.734 30.8379L133.383 24.4219C133.305 23.6211 132.484 23.2207 130.922 23.2207H127.26C125.619 23.2207 124.799 23.9824 124.799 25.5059V34.9834C124.799 35.8623 124.96 36.6191 125.282 37.2539C125.565 37.8984 126.005 38.2207 126.601 38.2207C126.64 38.2207 126.82 38.2207 127.143 38.2207C127.504 38.2598 128.021 38.2598 128.695 38.2207C130.014 38.1816 130.717 38.1621 130.805 38.1621C131.439 38.1621 131.996 38.3037 132.475 38.5869C132.963 38.8994 133.207 39.4561 133.207 40.2568C133.246 40.4229 133.266 40.5645 133.266 40.6816C133.266 41.082 133.085 41.3994 132.724 41.6338C132.206 41.9951 131.522 42.1758 130.673 42.1758C129.198 42.1758 127.86 42.1367 126.659 42.0586C122.46 41.7754 120.16 41.6338 119.76 41.6338L115.438 42.1172C113.964 42.1172 113.046 41.9561 112.685 41.6338C112.323 41.3604 112.143 40.8232 112.143 40.0225C112.143 39.6221 112.26 39.2217 112.494 38.8213C112.699 38.4209 112.943 38.2207 113.227 38.2207C113.9 38.2207 114.74 38.2598 115.746 38.3379C116.703 38.416 117.201 38.4551 117.24 38.4551C117.318 38.4551 117.396 38.4551 117.475 38.4551C118.314 38.4551 118.915 38.0352 119.276 37.1953C119.677 36.3164 119.877 35.2568 119.877 34.0166V10.0225C119.877 8.66504 119.857 7.86426 119.818 7.62012C119.584 6.2627 118.725 5.58398 117.24 5.58398L114.179 5.64258C113.7 5.64258 113.241 5.44238 112.802 5.04199C112.362 4.6416 112.143 4.31934 112.143 4.0752C112.143 3.23535 112.479 2.61523 113.153 2.21484C113.798 1.85352 114.638 1.67285 115.673 1.67285C117.118 1.67285 118.578 1.73633 120.053 1.86328C124.457 2.22461 126.898 2.40527 127.377 2.40527L143.944 1.80469C144.94 1.80469 145.717 2.02441 146.273 2.46387C146.84 2.90332 147.123 3.4209 147.123 4.0166ZM192.226 40.0225C192.226 40.9404 191.845 41.5801 191.083 41.9414C190.565 42.1758 189.765 42.293 188.681 42.293C188.241 42.293 187.919 42.293 187.714 42.293C184.159 42.293 181.762 41.6143 180.521 40.2568C179.477 39.1436 178.954 37.4248 178.954 35.1006V29.9443C178.954 28.1768 178.495 26.6533 177.577 25.374C176.659 24.0947 175.438 23.4551 173.915 23.4551C173.876 23.416 173.397 23.377 172.479 23.3379C171.562 23.2988 170.961 23.2793 170.678 23.2793C169.799 23.2793 169.062 23.2793 168.466 23.2793C167.86 23.2793 167.299 23.2988 166.781 23.3379C165.502 23.3379 164.662 23.4209 164.262 23.5869C163.5 23.8994 163.119 24.6172 163.119 25.7402V33.8994C163.119 35.2178 163.319 36.2773 163.72 37.0781C164.12 37.918 164.779 38.3379 165.697 38.3379C165.697 38.3379 165.78 38.3379 165.946 38.3379C166.22 38.3379 166.757 38.3184 167.558 38.2793C168.319 38.2402 168.9 38.2207 169.301 38.2207C169.496 38.2207 169.638 38.2207 169.726 38.2207C170.126 38.2207 170.424 38.4404 170.619 38.8799C170.824 39.3584 170.946 39.7002 170.985 39.9053C170.985 39.9834 170.985 40.0615 170.985 40.1396C170.985 40.6572 170.824 41.0967 170.502 41.458C170.102 41.8975 169.56 42.1172 168.876 42.1172C167.724 42.1172 166.005 42.0391 163.72 41.8828C161.444 41.7168 159.887 41.6338 159.047 41.6338C158.363 41.6338 157.479 41.6973 156.396 41.8242C155.321 41.9414 154.521 42 153.993 42C153.397 42 152.958 42 152.675 42C151.962 42 151.444 41.8779 151.122 41.6338C150.683 41.2822 150.463 40.6426 150.463 39.7148C150.463 39.4414 150.6 39.124 150.873 38.7627C151.117 38.4014 151.361 38.2207 151.605 38.2207C152.445 38.2207 153.202 38.2402 153.876 38.2793C154.56 38.3184 155.121 38.377 155.561 38.4551C156.283 38.4551 156.845 38.1963 157.245 37.6787C157.802 36.917 158.08 35.6963 158.08 34.0166V10.0225C158.08 8.61621 157.938 7.57617 157.655 6.90234C157.255 5.94531 156.557 5.4668 155.561 5.4668C155.521 5.4668 155.38 5.4668 155.136 5.4668C154.901 5.41797 154.545 5.41797 154.066 5.4668C153.1 5.54492 152.26 5.62305 151.547 5.70117C151.146 5.70117 150.863 5.48145 150.697 5.04199C150.502 4.6416 150.404 4.26074 150.404 3.89941C150.404 2.98145 150.741 2.36133 151.415 2.03906C152.099 1.75586 152.899 1.61426 153.817 1.61426C154.501 1.61426 155.844 1.75586 157.846 2.03906C158.998 2.19531 159.794 2.27344 160.233 2.27344C161.679 2.19531 162.841 2.13672 163.72 2.09766C166.64 1.94141 169.579 1.76074 172.538 1.55566C176.659 1.55566 179.94 2.41504 182.382 4.13379C184.784 5.8623 185.985 8.40625 185.985 11.7656C185.985 14.6855 185.082 16.9854 183.275 18.665C181.723 20.1006 179.623 21.0381 176.977 21.4775C179.379 21.8779 181.039 22.5371 181.957 23.4551C183.314 24.7832 183.993 27.1025 183.993 30.4131V34.6172C183.993 35.4961 184.135 36.2773 184.418 36.9609C184.662 37.6836 185.141 38.0449 185.854 38.0449C186.342 38.0449 187.265 38.0645 188.622 38.1035C189.979 38.1426 190.78 38.1621 191.024 38.1621C191.464 38.1621 191.781 38.3232 191.977 38.6455C192.143 38.9971 192.226 39.4561 192.226 40.0225ZM181.063 12C181.063 9.88086 180.302 8.2207 178.778 7.01953C177.255 5.81836 174.975 5.21777 171.938 5.21777C171.42 5.17871 171 5.15918 170.678 5.15918C170.443 5.15918 170.243 5.17871 170.077 5.21777C167.919 5.21777 166.322 5.4375 165.287 5.87695C163.842 6.48242 163.119 7.54199 163.119 9.05566V18.5332C163.119 18.7773 163.319 19.002 163.72 19.207C164.081 19.4023 164.442 19.5 164.804 19.5H170.443C177.523 19.5 181.063 17 181.063 12ZM229.579 21.9609C229.579 27.8789 228.3 32.6982 225.741 36.4189C222.665 40.9404 218.065 43.2012 211.942 43.2012C206.464 43.2012 202.162 41.1016 199.037 36.9023C196.156 33.0254 194.716 28.0449 194.716 21.9609C194.716 16.0039 196.156 11.082 199.037 7.19531C202.279 2.83984 206.762 0.662109 212.484 0.662109C218.002 0.662109 222.279 2.72266 225.316 6.84375C228.158 10.6816 229.579 15.7207 229.579 21.9609ZM224.174 21.7266C224.174 17.0391 223.354 13.1963 221.713 10.1982C219.682 6.47754 216.562 4.61719 212.353 4.61719C208.202 4.61719 205.043 6.49707 202.875 10.2568C201.039 13.499 200.121 17.6201 200.121 22.6201C200.121 27.0244 201.059 30.7256 202.934 33.7236C205.102 37.1611 208.104 38.8799 211.942 38.8799C216.103 38.8799 219.262 37.0586 221.42 33.416C223.256 30.3398 224.174 26.4434 224.174 21.7266ZM274.564 3.89941C274.564 4.7002 274.423 5.24219 274.14 5.52539C273.817 5.83789 273.378 5.99414 272.821 5.99414C272.304 5.99414 271.781 5.97461 271.254 5.93555C270.697 5.93555 270.18 5.91602 269.701 5.87695C269.262 5.87695 268.861 6.25781 268.5 7.01953C268.1 7.82031 267.899 8.86035 267.899 10.1396V37.4443C267.899 39.2412 267.519 40.6426 266.757 41.6484C265.995 42.6445 265.038 43.1426 263.886 43.1426C262.919 43.1426 261.977 42.7812 261.059 42.0586C260.141 41.3359 259.379 40.2959 258.773 38.9385L244.374 6.24316V35.7012C244.374 36.6191 244.574 37.3369 244.975 37.8545C245.375 38.4209 246.039 38.7041 246.967 38.7041C247.006 38.7041 247.064 38.7041 247.143 38.7041C247.377 38.7041 247.895 38.665 248.695 38.5869C249.74 38.499 250.341 38.4551 250.497 38.4551C251.103 38.4551 251.542 38.6553 251.815 39.0557C252.099 39.4561 252.24 39.8564 252.24 40.2568C252.24 41.6631 251.522 42.3662 250.087 42.3662C249.042 42.3662 247.899 42.3027 246.659 42.1758C243.739 41.9023 241.762 41.7656 240.727 41.7656C240.365 41.7656 239.384 41.8828 237.782 42.1172C237.265 42.1953 236.483 42.3174 235.438 42.4834C234.403 42.4834 233.603 42.3223 233.036 42C232.44 41.6777 232.143 41.0967 232.143 40.2568C232.143 39.9346 232.24 39.5537 232.436 39.1143C232.641 38.6748 232.943 38.4551 233.344 38.4551C234.018 38.4551 234.838 38.5186 235.805 38.6455C236.723 38.7627 237.201 38.8213 237.24 38.8213C237.318 38.8213 237.396 38.8213 237.475 38.8213C238.119 38.8213 238.661 38.5186 239.101 37.9131C239.54 37.2393 239.76 36.0234 239.76 34.2656V10.1396C239.76 8.78223 239.54 7.70312 239.101 6.90234C238.661 6.10156 238.041 5.70117 237.24 5.70117C236.84 5.74023 236.239 5.7793 235.438 5.81836C234.599 5.85742 233.861 5.87695 233.227 5.87695C232.865 5.87695 232.582 5.71582 232.377 5.39355C232.182 5.08105 232.084 4.62207 232.084 4.0166C232.084 3.49902 232.343 2.98145 232.86 2.46387C233.378 1.93652 233.979 1.67285 234.662 1.67285C235.141 1.7998 235.78 1.90234 236.581 1.98047C237.343 2.05859 238.544 2.09766 240.185 2.09766C241.386 2.09766 242.406 2.05859 243.246 1.98047C244.086 1.90234 244.765 1.82422 245.282 1.74609C246.122 1.74609 246.801 2.02441 247.318 2.58105C247.602 2.90332 248.021 3.58203 248.578 4.61719L263.461 38.1621V12.6006C263.461 12.2783 263.461 12.0195 263.461 11.8242C263.461 10.3398 263.319 9.09961 263.036 8.10352C262.597 6.50195 261.84 5.70117 260.766 5.70117L257.514 5.81836C256.957 5.81836 256.498 5.66211 256.137 5.34961C255.775 5.02734 255.595 4.62207 255.595 4.13379C255.595 3.29395 255.917 2.71777 256.562 2.40527C257.196 2.08301 258.017 1.92188 259.022 1.92188C259.618 2.03906 260.375 2.13672 261.293 2.21484C262.182 2.3418 263.383 2.40527 264.896 2.40527C265.502 2.40527 266.645 2.32227 268.324 2.15625C270.004 2.03906 271.244 1.98047 272.045 1.98047C272.924 1.98047 273.461 2.01953 273.656 2.09766C274.262 2.3418 274.564 2.94238 274.564 3.89941ZM312.006 16.4385C312.006 17.2783 311.903 17.8594 311.698 18.1816C311.376 18.6602 310.717 18.8994 309.721 18.8994C308.92 18.8994 308.397 18.7383 308.153 18.416C307.714 17.8203 307.494 16.4434 307.494 14.2852C307.494 12.6055 307.514 11.3018 307.553 10.374C307.553 9.45605 307.597 8.55762 307.685 7.67871C307.685 6.83887 307.382 6.25781 306.776 5.93555C306.181 5.62305 305.541 5.4668 304.857 5.4668H300.727C299.125 5.4668 298.085 5.84277 297.606 6.59473C297.284 7.12207 297.04 8.20605 296.874 9.84668V34.0166C296.874 35.4229 297.016 36.4629 297.299 37.1367C297.699 38.1035 298.339 38.5869 299.218 38.5869C299.335 38.5869 299.457 38.5869 299.584 38.5869C300.18 38.5869 300.736 38.5625 301.254 38.5137C301.781 38.5137 302.543 38.4551 303.539 38.3379C303.939 38.3379 304.218 38.4795 304.374 38.7627C304.54 39.0361 304.623 39.4951 304.623 40.1396C304.623 40.54 304.481 40.96 304.198 41.3994C303.876 41.8779 303.534 42.1172 303.173 42.1172C301.698 42.1172 299.838 42.0586 297.592 41.9414C295.355 41.8242 294.218 41.7656 294.179 41.7656C294.062 41.7656 293.92 41.7656 293.754 41.7656C293.119 41.7656 292.001 41.8242 290.399 41.9414C289.716 41.9805 288.734 42.0781 287.455 42.2344C286.498 42.2344 285.697 42.0586 285.053 41.707C284.418 41.3848 284.101 40.8232 284.101 40.0225C284.101 39.7783 284.223 39.4365 284.467 38.9971C284.662 38.5576 284.921 38.3379 285.243 38.3379C286.044 38.3379 286.762 38.3574 287.396 38.3965C288.041 38.4355 288.661 38.5186 289.257 38.6455C290.38 38.6455 291.142 38.1426 291.542 37.1367C291.825 36.4629 291.967 35.4424 291.967 34.0752V9.77344C291.967 8.18164 291.664 7.08301 291.059 6.47754C290.463 5.88184 289.623 5.58398 288.539 5.58398H284.335C283.622 5.58398 282.963 5.76465 282.357 6.12598C281.723 6.47754 281.405 6.95605 281.405 7.56152L281.522 14.2266C281.522 14.9395 281.522 15.4375 281.522 15.7207C281.522 17 281.42 17.8398 281.215 18.2402C280.902 18.8359 280.224 19.1338 279.179 19.1338C278.778 19.1338 278.358 18.958 277.919 18.6064C277.479 18.2451 277.201 17.7617 277.084 17.1562C277.045 17 277.025 16.7412 277.025 16.3799C277.025 15.6572 277.084 14.5977 277.201 13.2012C277.201 12.8398 277.26 12.3174 277.377 11.6338C277.377 10.999 277.338 9.8418 277.26 8.16211C277.143 6.52148 277.084 5.02246 277.084 3.66504C277.084 2.98145 277.44 2.49805 278.153 2.21484C278.876 1.94141 279.76 1.80469 280.805 1.80469L294.237 2.15625C296.718 2 298.637 1.90234 299.994 1.86328C304.154 1.6582 307.016 1.55566 308.578 1.55566C309.779 1.55566 310.639 1.7168 311.156 2.03906C311.684 2.36133 311.947 2.85938 311.947 3.5332C311.947 4.57813 311.884 5.97949 311.757 7.7373C311.64 9.49512 311.581 10.7744 311.581 11.5752C311.581 11.8584 311.679 12.8203 311.874 14.4609C311.962 15.0957 312.006 15.7549 312.006 16.4385ZM349.154 40.0225C349.154 40.7842 348.778 41.3652 348.026 41.7656C347.382 42.0781 346.898 42.2344 346.576 42.2344C346.498 42.2344 346.42 42.2344 346.342 42.2344C346.02 42.1562 342.88 42.0195 336.923 41.8242C334.96 41.7852 332.001 41.6826 328.046 41.5166C326.845 41.5166 324.662 41.6191 321.498 41.8242C320.463 41.8633 319.003 41.9609 317.118 42.1172C315.995 42.1172 315.175 42 314.657 41.7656C314.101 41.5215 313.822 40.9404 313.822 40.0225C313.822 39.6221 313.939 39.2217 314.174 38.8213C314.379 38.4209 314.662 38.2207 315.023 38.2207C315.902 38.2207 316.679 38.2402 317.353 38.2793C317.997 38.3184 318.52 38.377 318.92 38.4551C318.998 38.4551 319.076 38.4551 319.154 38.4551C319.994 38.4551 320.595 38.0352 320.956 37.1953C321.356 36.3164 321.557 35.2568 321.557 34.0166V10.0225C321.557 8.1377 321.356 6.91699 320.956 6.36035C320.517 5.84277 319.838 5.58398 318.92 5.58398L314.906 5.70117C314.623 5.70117 314.379 5.48145 314.174 5.04199C313.939 4.6416 313.822 4.31934 313.822 4.0752C313.822 3.0791 314.12 2.41992 314.716 2.09766C315.282 1.81445 316.122 1.67285 317.235 1.67285C318.681 1.67285 320.141 1.73633 321.615 1.86328C326.059 2.22461 328.539 2.40527 329.057 2.40527C332.66 2.23926 335.36 2.13672 337.157 2.09766C342.636 1.90234 345.575 1.80469 345.976 1.80469C346.659 1.80469 347.299 1.98535 347.895 2.34668C348.5 2.69824 348.803 3.25488 348.803 4.0166C348.803 5.17871 348.7 6.59961 348.495 8.2793C348.3 9.95898 348.202 11.3604 348.202 12.4834L348.437 15.3545C348.437 16.3604 348.319 17.1221 348.085 17.6396C347.724 18.4014 347.104 18.7822 346.225 18.7822C345.619 18.7822 345.116 18.6602 344.716 18.416C344.276 18.1816 344.057 17.7617 344.057 17.1562L344.174 11.0332C344.174 9.59766 344.057 8.60156 343.822 8.04492C343.305 6.84375 342.265 6.24316 340.702 6.24316L331.518 5.99414C329.643 5.99414 328.344 6.21387 327.621 6.65332C326.859 7.10254 326.479 8.02539 326.479 9.42188V17.6396C326.479 18.2842 326.679 18.7236 327.079 18.958C327.44 19.2412 327.88 19.3828 328.397 19.3828H332.235C332.997 19.3828 333.715 19.1826 334.389 18.7822C335.072 18.3818 335.414 17.9619 335.414 17.5225L335.18 13.9775C335.18 13.1377 335.38 12.3809 335.78 11.707C336.142 11.0234 336.659 10.6816 337.333 10.6816C338.017 10.6816 338.539 10.9404 338.9 11.458C339.223 11.9756 339.384 12.5371 339.384 13.1426C339.218 14.8613 339.115 16.1797 339.076 17.0977C338.842 20.2227 338.725 21.9023 338.725 22.1367C338.725 22.7812 338.822 24.0605 339.018 25.9746C339.057 26.6191 339.179 27.5811 339.384 28.8604C339.384 29.7783 339.345 30.3789 339.267 30.6621C338.983 31.6582 338.28 32.1562 337.157 32.1562C336.757 32.1562 336.356 32.0391 335.956 31.8047C335.556 31.5605 335.355 31.2383 335.355 30.8379L335.062 24.4219C335.062 24.1777 334.843 23.9189 334.403 23.6455C333.925 23.3623 333.324 23.2207 332.602 23.2207H328.939C327.299 23.2207 326.479 23.9824 326.479 25.5059V34.9834C326.479 35.8623 326.64 36.6191 326.962 37.2539C327.245 37.8984 327.685 38.2207 328.28 38.2207L341.054 37.7959C342.46 37.7959 343.461 37.2148 344.057 36.0527C344.496 35.2129 344.716 34.1143 344.716 32.7568C344.716 32.2002 344.696 31.7412 344.657 31.3799C344.657 31.2627 344.618 31.082 344.54 30.8379L344.423 26.8828C344.423 26.4434 344.643 26.0625 345.082 25.7402C345.521 25.418 346.02 25.2568 346.576 25.2568C347.26 25.2568 347.802 25.5791 348.202 26.2236C348.603 26.8975 348.803 27.6348 348.803 28.4355C348.803 28.7578 348.764 29.2607 348.686 29.9443C348.598 30.6182 348.554 31.1553 348.554 31.5557C348.554 32.7959 348.656 34.3584 348.861 36.2432C349.057 38.1572 349.154 39.417 349.154 40.0225ZM394.564 3.89941C394.564 4.7002 394.423 5.24219 394.14 5.52539C393.817 5.83789 393.378 5.99414 392.821 5.99414C392.304 5.99414 391.781 5.97461 391.254 5.93555C390.697 5.93555 390.18 5.91602 389.701 5.87695C389.262 5.87695 388.861 6.25781 388.5 7.01953C388.1 7.82031 387.899 8.86035 387.899 10.1396V37.4443C387.899 39.2412 387.519 40.6426 386.757 41.6484C385.995 42.6445 385.038 43.1426 383.886 43.1426C382.919 43.1426 381.977 42.7812 381.059 42.0586C380.141 41.3359 379.379 40.2959 378.773 38.9385L364.374 6.24316V35.7012C364.374 36.6191 364.574 37.3369 364.975 37.8545C365.375 38.4209 366.039 38.7041 366.967 38.7041C367.006 38.7041 367.064 38.7041 367.143 38.7041C367.377 38.7041 367.895 38.665 368.695 38.5869C369.74 38.499 370.341 38.4551 370.497 38.4551C371.103 38.4551 371.542 38.6553 371.815 39.0557C372.099 39.4561 372.24 39.8564 372.24 40.2568C372.24 41.6631 371.522 42.3662 370.087 42.3662C369.042 42.3662 367.899 42.3027 366.659 42.1758C363.739 41.9023 361.762 41.7656 360.727 41.7656C360.365 41.7656 359.384 41.8828 357.782 42.1172C357.265 42.1953 356.483 42.3174 355.438 42.4834C354.403 42.4834 353.603 42.3223 353.036 42C352.44 41.6777 352.143 41.0967 352.143 40.2568C352.143 39.9346 352.24 39.5537 352.436 39.1143C352.641 38.6748 352.943 38.4551 353.344 38.4551C354.018 38.4551 354.838 38.5186 355.805 38.6455C356.723 38.7627 357.201 38.8213 357.24 38.8213C357.318 38.8213 357.396 38.8213 357.475 38.8213C358.119 38.8213 358.661 38.5186 359.101 37.9131C359.54 37.2393 359.76 36.0234 359.76 34.2656V10.1396C359.76 8.78223 359.54 7.70312 359.101 6.90234C358.661 6.10156 358.041 5.70117 357.24 5.70117C356.84 5.74023 356.239 5.7793 355.438 5.81836C354.599 5.85742 353.861 5.87695 353.227 5.87695C352.865 5.87695 352.582 5.71582 352.377 5.39355C352.182 5.08105 352.084 4.62207 352.084 4.0166C352.084 3.49902 352.343 2.98145 352.86 2.46387C353.378 1.93652 353.979 1.67285 354.662 1.67285C355.141 1.7998 355.78 1.90234 356.581 1.98047C357.343 2.05859 358.544 2.09766 360.185 2.09766C361.386 2.09766 362.406 2.05859 363.246 1.98047C364.086 1.90234 364.765 1.82422 365.282 1.74609C366.122 1.74609 366.801 2.02441 367.318 2.58105C367.602 2.90332 368.021 3.58203 368.578 4.61719L383.461 38.1621V12.6006C383.461 12.2783 383.461 12.0195 383.461 11.8242C383.461 10.3398 383.319 9.09961 383.036 8.10352C382.597 6.50195 381.84 5.70117 380.766 5.70117L377.514 5.81836C376.957 5.81836 376.498 5.66211 376.137 5.34961C375.775 5.02734 375.595 4.62207 375.595 4.13379C375.595 3.29395 375.917 2.71777 376.562 2.40527C377.196 2.08301 378.017 1.92188 379.022 1.92188C379.618 2.03906 380.375 2.13672 381.293 2.21484C382.182 2.3418 383.383 2.40527 384.896 2.40527C385.502 2.40527 386.645 2.32227 388.324 2.15625C390.004 2.03906 391.244 1.98047 392.045 1.98047C392.924 1.98047 393.461 2.01953 393.656 2.09766C394.262 2.3418 394.564 2.94238 394.564 3.89941ZM437.338 22.0195C437.338 27.7031 436.156 32.1416 433.793 35.335C431.84 37.9814 429.003 39.8613 425.282 40.9746C422.479 41.8145 419.12 42.2344 415.204 42.2344C414.521 42.2344 413.817 42.1953 413.095 42.1172C412.382 42.0391 411.723 41.9609 411.117 41.8828C409.438 41.8828 407.738 41.8828 406.02 41.8828C404.262 41.9219 402.401 42.0391 400.438 42.2344C399.159 42.2344 398.28 42.0586 397.802 41.707C397.323 41.3848 397.084 40.8428 397.084 40.0811C397.084 39.6807 397.162 39.2803 397.318 38.8799C397.475 38.5186 397.777 38.3379 398.227 38.3379C399.262 38.3379 400.097 38.3574 400.731 38.3965C401.376 38.4355 401.879 38.499 402.24 38.5869C403.119 38.5869 403.759 38.1475 404.159 37.2686C404.56 36.3799 404.76 35.335 404.76 34.1338V10.0225C404.76 8.66504 404.638 7.68359 404.394 7.07812C404.042 6.16016 403.324 5.70117 402.24 5.70117H398.227C397.865 5.70117 397.582 5.52051 397.377 5.15918C397.182 4.79785 397.084 4.41699 397.084 4.0166C397.084 3.38184 397.221 2.84473 397.494 2.40527C397.777 2.00488 398.3 1.80469 399.062 1.80469C400.097 1.80469 401.278 1.86328 402.606 1.98047C405.722 2.26367 407.66 2.40527 408.422 2.40527C409.379 2.40527 411.059 2.32227 413.461 2.15625C415.824 2 417.343 1.92188 418.017 1.92188C424.296 1.92188 429.135 3.82129 432.533 7.62012C435.736 11.2236 437.338 16.0234 437.338 22.0195ZM432.123 21.7852C432.123 16.8633 431.063 13.1426 428.944 10.623C426.337 7.53711 422.074 5.99414 416.156 5.99414C413.236 5.99414 411.396 6.27734 410.634 6.84375C410.155 7.20508 409.916 8.06445 409.916 9.42188V34.7344C409.916 35.5742 410.019 36.2773 410.224 36.8438C410.38 37.4395 410.819 37.7764 411.542 37.8545C412.265 37.9814 412.904 38.0645 413.461 38.1035C415.424 38.3379 416.742 38.4551 417.416 38.4551C422.338 38.4551 426.059 36.9561 428.578 33.958C430.941 31.1162 432.123 27.0586 432.123 21.7852Z" fill="black"/>
<path d="M343.519 66.3203C343.519 66.8542 343.338 67.2952 342.977 67.6436C342.618 67.9886 342.14 68.1611 341.541 68.1611C340.835 68.1611 340.314 68.0146 339.979 67.7217C339.793 67.5622 339.607 67.248 339.422 66.7793C339.061 67.2611 338.58 67.6273 337.981 67.8779C337.379 68.1449 336.746 68.2783 336.082 68.2783C335.174 68.2783 334.386 68.0049 333.719 67.458C333.038 66.9111 332.698 66.1982 332.698 65.3193C332.698 64.0921 333.258 63.2718 334.378 62.8584C335.433 62.6598 336.487 62.4531 337.542 62.2383C338.675 61.9876 339.241 61.4489 339.241 60.6221C339.241 60.1403 339.08 59.7594 338.758 59.4795C338.387 59.1605 337.854 59.001 337.161 59.001C336.679 59.001 336.272 59.0612 335.94 59.1816C335.592 59.3021 335.332 59.5348 335.159 59.8799C335.159 59.9482 335.226 60.0296 335.359 60.124C335.493 60.2152 335.56 60.2998 335.56 60.3779V61.1201C335.56 61.2536 335.454 61.374 335.242 61.4814C335.014 61.6019 334.799 61.6621 334.598 61.6621C334.305 61.6621 334.046 61.5889 333.821 61.4424C333.499 61.2406 333.338 60.9264 333.338 60.5C333.338 59.6081 333.751 58.9082 334.578 58.4004C335.314 57.9479 336.201 57.7217 337.239 57.7217C338.401 57.7217 339.288 58.0146 339.9 58.6006C340.512 59.1865 340.818 60.0524 340.818 61.1982V66.1201C340.818 66.387 340.898 66.5938 341.058 66.7402C341.207 66.8997 341.368 66.9795 341.541 66.9795C341.821 66.9795 342.007 66.8737 342.098 66.6621C342.192 66.4473 342.239 66.1266 342.239 65.7002V64.7188C342.239 64.5332 342.299 64.3802 342.42 64.2598C342.54 64.1393 342.68 64.0791 342.84 64.0791C343.025 64.0791 343.185 64.167 343.318 64.3428C343.452 64.5153 343.519 64.7806 343.519 65.1387V66.3203ZM339.222 64.2402V62.7998C338.808 63.2002 337.794 63.5208 336.18 63.7617C334.913 63.9473 334.28 64.4404 334.28 65.2412C334.28 65.7067 334.453 66.0859 334.798 66.3789C335.133 66.6849 335.62 66.8379 336.258 66.8379C337.218 66.8379 337.952 66.6117 338.46 66.1592C338.968 65.7067 339.222 65.0671 339.222 64.2402ZM356.541 67.4385C356.541 67.5719 356.487 67.6924 356.38 67.7998C356.259 67.9202 356.126 67.9805 355.979 67.9805L351.458 68.0195C351.285 68.0195 351.139 67.9398 351.019 67.7803C350.911 67.6468 350.857 67.5003 350.857 67.3408C350.857 67.3278 350.857 67.3148 350.857 67.3018C350.887 67.1683 350.947 67.0479 351.038 66.9404C351.119 66.833 351.207 66.7793 351.302 66.7793C351.608 66.7793 351.867 66.7858 352.078 66.7988C352.293 66.8118 352.461 66.833 352.581 66.8623C352.754 66.8623 352.866 66.8021 352.918 66.6816C352.96 66.5612 352.981 66.374 352.981 66.1201C352.981 65.9606 352.981 65.8467 352.981 65.7783V61.1592C352.981 60.5342 352.734 60.015 352.239 59.6016C351.731 59.2012 351.139 59.001 350.462 59.001C349.606 59.001 348.932 59.2939 348.44 59.8799C347.946 60.4788 347.698 61.2048 347.698 62.0576V65.9004C347.698 66.1283 347.732 66.3415 347.801 66.54C347.853 66.7549 347.952 66.8623 348.099 66.8623C348.3 66.833 348.52 66.8118 348.758 66.7988C348.999 66.7858 349.22 66.7793 349.422 66.7793C349.5 66.7793 349.578 66.8395 349.656 66.96C349.738 67.0804 349.778 67.1943 349.778 67.3018C349.778 67.5003 349.733 67.6729 349.642 67.8193C349.534 67.9658 349.38 68.0391 349.178 68.0391L344.539 68C344.393 68 344.279 67.9674 344.197 67.9023C344.106 67.834 344.061 67.7201 344.061 67.5605C344.087 67.388 344.113 67.2611 344.139 67.1797C344.246 66.9258 344.42 66.7793 344.661 66.7402C344.713 66.7272 344.773 66.7207 344.842 66.7207C344.988 66.7207 345.167 66.7402 345.379 66.7793C345.486 66.7923 345.633 66.82 345.818 66.8623C345.939 66.8623 346.04 66.7354 346.121 66.4814C346.186 66.2275 346.219 65.9801 346.219 65.7393V60.4219C346.219 60.0996 346.199 59.8522 346.16 59.6797C346.079 59.3867 345.965 59.2402 345.818 59.2402C345.805 59.2402 345.792 59.2402 345.779 59.2402C345.62 59.2663 345.426 59.2858 345.198 59.2988C344.961 59.3249 344.814 59.3379 344.759 59.3379C344.534 59.3379 344.388 59.3184 344.319 59.2793C344.186 59.2012 344.119 59.014 344.119 58.7178C344.119 58.4118 344.233 58.2262 344.461 58.1611C344.767 58.1188 345 58.0911 345.159 58.0781C345.198 58.0781 345.239 58.0781 345.281 58.0781C345.359 58.0781 345.459 58.0846 345.579 58.0977C345.739 58.14 345.846 58.1611 345.901 58.1611L347.122 58.0391C347.334 58.0391 347.465 58.2393 347.518 58.6396C347.534 58.7731 347.542 58.9733 347.542 59.2402C348.021 58.7585 348.493 58.4053 348.958 58.1807C349.518 57.9007 350.125 57.7607 350.779 57.7607C351.834 57.7607 352.687 58.0472 353.338 58.6201C354.087 59.2744 354.461 60.2152 354.461 61.4424V65.7783C354.461 66.1396 354.493 66.4066 354.559 66.5791C354.614 66.7679 354.728 66.8623 354.9 66.8623C355.099 66.833 355.312 66.8118 355.54 66.7988C355.752 66.7858 355.939 66.7793 356.102 66.7793C356.287 66.7793 356.406 66.8395 356.458 66.96C356.513 67.0934 356.541 67.2529 356.541 67.4385ZM368.211 67.502C368.211 67.6484 368.17 67.7624 368.089 67.8438C368.011 67.9219 367.92 67.9609 367.815 67.9609L365.135 68C364.894 68 364.773 67.8926 364.773 67.6777V66.9014C364.441 67.3799 364.028 67.7331 363.533 67.9609C363.038 68.1855 362.485 68.2979 361.873 68.2979C360.473 68.2979 359.347 67.8112 358.494 66.8379C357.628 65.8809 357.195 64.6016 357.195 63C357.195 62.5345 357.234 62.1016 357.312 61.7012C357.394 61.3008 357.514 60.8743 357.674 60.4219C358.019 59.582 358.545 58.9277 359.251 58.459C359.961 58.0065 360.761 57.7803 361.653 57.7803C362.187 57.7803 362.706 57.8665 363.211 58.0391C363.465 58.1986 363.712 58.3727 363.953 58.5615C364.181 58.7601 364.401 58.9798 364.612 59.2207V57.2188C364.612 56.6328 364.565 56.2129 364.471 55.959C364.367 55.7344 364.248 55.6221 364.114 55.6221C364.101 55.6221 364.088 55.6221 364.075 55.6221C363.968 55.6351 363.774 55.6481 363.494 55.6611C363.201 55.6872 363.001 55.7002 362.894 55.7002C362.799 55.7002 362.719 55.6465 362.654 55.5391C362.573 55.4316 362.532 55.2526 362.532 55.002C362.532 54.7741 362.612 54.6195 362.771 54.5381C362.918 54.473 363.118 54.4404 363.372 54.4404L365.872 54.4795C366.006 54.4795 366.1 54.5462 366.155 54.6797C366.194 54.8132 366.214 54.9792 366.214 55.1777C366.214 55.3112 366.214 55.4056 366.214 55.4609C366.188 56.4863 366.168 57.3001 366.155 57.9023C366.1 60.0866 366.072 61.4928 366.072 62.1211C366.072 62.4531 366.072 62.7998 366.072 63.1611C366.059 63.5322 366.053 63.9847 366.053 64.5186C366.053 64.7855 366.059 65.0394 366.072 65.2803C366.072 65.5212 366.079 65.6611 366.092 65.7002C366.092 66.0192 366.126 66.2861 366.194 66.501C366.259 66.7126 366.399 66.8184 366.614 66.8184C366.787 66.7923 366.972 66.7728 367.171 66.7598C367.373 66.7467 367.56 66.7402 367.732 66.7402C367.918 66.7402 368.043 66.8135 368.108 66.96C368.177 67.1064 368.211 67.2871 368.211 67.502ZM364.471 64.8018V61.1006C364.471 60.6611 364.218 60.2217 363.714 59.7822C363.154 59.3005 362.534 59.0596 361.854 59.0596C360.893 59.0596 360.146 59.4258 359.612 60.1582C359.065 60.9069 358.792 61.7939 358.792 62.8193C358.792 64.2191 359.1 65.2786 359.715 65.998C360.262 66.6393 360.968 66.96 361.834 66.96C362.472 66.96 363.071 66.7402 363.631 66.3008C364.191 65.8613 364.471 65.3617 364.471 64.8018ZM389.7 64.5186C389.7 65.6123 389.306 66.5254 388.519 67.2578C387.734 67.9935 386.788 68.3613 385.682 68.3613C384.308 68.3613 383.195 67.8812 382.342 66.9209C381.473 65.9736 381.038 64.6927 381.038 63.0781C381.038 61.5319 381.484 60.2526 382.376 59.2402C383.271 58.2279 384.419 57.7217 385.818 57.7217C386.821 57.7217 387.661 57.9805 388.338 58.498C389.113 59.0872 389.5 59.888 389.5 60.9004C389.5 61.3138 389.394 61.6605 389.183 61.9404C388.903 62.3148 388.481 62.502 387.918 62.502C387.654 62.502 387.422 62.3945 387.22 62.1797C387.021 61.9681 386.922 61.7288 386.922 61.4619C386.922 61.2731 387.008 61.0729 387.181 60.8613C387.34 60.6465 387.579 60.5391 387.898 60.5391C387.794 60.0605 387.527 59.6943 387.098 59.4404C386.671 59.1865 386.199 59.0596 385.682 59.0596C384.829 59.0596 384.114 59.4258 383.538 60.1582C382.952 60.9069 382.659 61.8607 382.659 63.0195C382.659 64.1784 382.933 65.1387 383.479 65.9004C384.013 66.6719 384.726 67.0576 385.618 67.0576C386.299 67.0576 386.912 66.7777 387.459 66.2178C388.006 65.6579 388.279 65.085 388.279 64.499C388.279 64.3656 388.366 64.2451 388.538 64.1377C388.714 64.0465 388.854 64.001 388.958 64.001C389.173 64.001 389.354 64.0612 389.5 64.1816C389.633 64.3021 389.7 64.4144 389.7 64.5186ZM401.839 66.3203C401.839 66.8542 401.658 67.2952 401.297 67.6436C400.939 67.9886 400.46 68.1611 399.861 68.1611C399.155 68.1611 398.634 68.0146 398.299 67.7217C398.113 67.5622 397.928 67.248 397.742 66.7793C397.381 67.2611 396.901 67.6273 396.302 67.8779C395.7 68.1449 395.066 68.2783 394.402 68.2783C393.494 68.2783 392.706 68.0049 392.039 67.458C391.359 66.9111 391.019 66.1982 391.019 65.3193C391.019 64.0921 391.578 63.2718 392.698 62.8584C393.753 62.6598 394.808 62.4531 395.862 62.2383C396.995 61.9876 397.562 61.4489 397.562 60.6221C397.562 60.1403 397.4 59.7594 397.078 59.4795C396.707 59.1605 396.175 59.001 395.481 59.001C395 59.001 394.593 59.0612 394.261 59.1816C393.912 59.3021 393.652 59.5348 393.479 59.8799C393.479 59.9482 393.546 60.0296 393.68 60.124C393.813 60.2152 393.88 60.2998 393.88 60.3779V61.1201C393.88 61.2536 393.774 61.374 393.562 61.4814C393.335 61.6019 393.12 61.6621 392.918 61.6621C392.625 61.6621 392.366 61.5889 392.142 61.4424C391.819 61.2406 391.658 60.9264 391.658 60.5C391.658 59.6081 392.072 58.9082 392.898 58.4004C393.634 57.9479 394.521 57.7217 395.56 57.7217C396.722 57.7217 397.609 58.0146 398.221 58.6006C398.833 59.1865 399.139 60.0524 399.139 61.1982V66.1201C399.139 66.387 399.218 66.5938 399.378 66.7402C399.528 66.8997 399.689 66.9795 399.861 66.9795C400.141 66.9795 400.327 66.8737 400.418 66.6621C400.512 66.4473 400.56 66.1266 400.56 65.7002V64.7188C400.56 64.5332 400.62 64.3802 400.74 64.2598C400.861 64.1393 401.001 64.0791 401.16 64.0791C401.346 64.0791 401.505 64.167 401.639 64.3428C401.772 64.5153 401.839 64.7806 401.839 65.1387V66.3203ZM397.542 64.2402V62.7998C397.129 63.2002 396.115 63.5208 394.5 63.7617C393.234 63.9473 392.601 64.4404 392.601 65.2412C392.601 65.7067 392.773 66.0859 393.118 66.3789C393.453 66.6849 393.94 66.8379 394.578 66.8379C395.538 66.8379 396.272 66.6117 396.78 66.1592C397.288 65.7067 397.542 65.0671 397.542 64.2402ZM409.539 64.2988C409.539 65.474 409.399 66.335 409.119 66.8818C408.693 67.7087 407.879 68.1221 406.678 68.1221C405.906 68.1221 405.241 67.9284 404.681 67.541C404.065 67.1146 403.758 66.5547 403.758 65.8613V59.8799C403.758 59.7985 403.758 59.7188 403.758 59.6406C403.719 59.5072 403.587 59.4404 403.362 59.4404H402.742C402.514 59.4404 402.34 59.3672 402.22 59.2207C402.086 59.0742 402.02 58.8936 402.02 58.6787C402.02 58.4801 402.073 58.3141 402.181 58.1807C402.275 58.0602 402.435 58 402.659 58H403.44C403.574 58 403.654 57.9935 403.68 57.9805C403.761 57.9414 403.802 57.8145 403.802 57.5996V55.5391C403.802 55.3405 403.882 55.181 404.041 55.0605C404.188 54.9401 404.36 54.8799 404.559 54.8799C404.76 54.8799 404.935 54.9336 405.081 55.041C405.215 55.1615 405.281 55.3275 405.281 55.5391V57.6777C405.281 57.8926 405.4 58 405.638 58H407.82C408.061 58 408.24 58.0667 408.357 58.2002C408.478 58.3337 408.538 58.4867 408.538 58.6592C408.538 58.861 408.471 59.0417 408.338 59.2012C408.204 59.3607 408.019 59.4404 407.781 59.4404H405.56C405.4 59.4404 405.307 59.4876 405.281 59.582C405.281 59.7155 405.281 59.8148 405.281 59.8799V64.7578C405.281 65.36 405.374 65.8402 405.56 66.1982C405.8 66.667 406.188 66.9014 406.722 66.9014C407.308 66.9014 407.721 66.5482 407.962 65.8418C408.121 65.373 408.201 64.8262 408.201 64.2012C408.201 64.1198 408.201 64.0335 408.201 63.9424C408.201 63.9261 408.195 63.9115 408.182 63.8984C408.169 63.8333 408.162 63.7731 408.162 63.7178C408.162 63.4932 408.221 63.3337 408.338 63.2393C408.484 63.1318 408.665 63.0781 408.88 63.0781C409.16 63.0781 409.339 63.1449 409.417 63.2783C409.498 63.4118 409.539 63.612 409.539 63.8789C409.539 64.0677 409.539 64.2077 409.539 64.2988ZM418.914 65.1582C418.914 66.2259 418.514 67.0397 417.713 67.5996C417.007 68.0944 416.053 68.3418 414.852 68.3418C414.145 68.3418 413.592 68.2539 413.191 68.0781C412.765 67.8275 412.405 67.6354 412.112 67.502V68.0781C412.112 68.2539 412.052 68.3678 411.932 68.4199C411.814 68.485 411.648 68.5176 411.434 68.5176C411.382 68.5339 411.334 68.542 411.292 68.542C411.172 68.542 411.066 68.4948 410.975 68.4004C410.841 68.2799 410.755 68.1204 410.716 67.9219C410.716 67.9089 410.716 67.8877 410.716 67.8584C410.716 67.7542 410.735 67.515 410.774 67.1406C410.787 66.9941 410.82 66.7614 410.872 66.4424C410.872 66.1885 410.846 65.8678 410.794 65.4805C410.742 65.0931 410.716 64.8001 410.716 64.6016C410.716 64.3867 410.774 64.1995 410.892 64.04C410.999 63.8936 411.146 63.8203 411.331 63.8203C411.494 63.8203 411.648 63.8675 411.795 63.9619C411.928 64.0661 411.995 64.1995 411.995 64.3623L412.015 65.0996C412.015 65.7539 412.355 66.2601 413.035 66.6182C413.608 66.9274 414.28 67.082 415.052 67.082C415.586 67.082 416.04 66.9811 416.414 66.7793C416.854 66.5384 417.181 66.1657 417.396 65.6611C417.409 65.6058 417.415 65.526 417.415 65.4219C417.415 65.0605 417.308 64.7399 417.093 64.46C416.868 64.193 416.575 64.0205 416.214 63.9424L412.596 63.1611C412.299 63.0928 411.992 62.8861 411.673 62.541C411.246 62.0723 411.033 61.5319 411.033 60.9199C411.033 59.9206 411.414 59.1198 412.176 58.5176C412.934 57.9316 413.854 57.6387 414.935 57.6387C415.322 57.6387 415.701 57.6989 416.072 57.8193C416.434 57.9528 416.78 58.1335 417.112 58.3613C417.112 58.0684 417.146 57.8551 417.215 57.7217C417.267 57.6012 417.452 57.541 417.771 57.541C417.947 57.541 418.095 57.5605 418.216 57.5996C418.32 57.6387 418.372 57.7314 418.372 57.8779V61.2812C418.372 61.4277 418.326 61.54 418.235 61.6182C418.128 61.7126 417.96 61.7598 417.732 61.7598C417.625 61.7598 417.492 61.6995 417.332 61.5791C417.16 61.4587 417.073 61.3057 417.073 61.1201C417.073 60.3193 416.834 59.7399 416.355 59.3818C415.942 59.0726 415.374 58.918 414.651 58.918C414.078 58.918 413.6 59.0921 413.216 59.4404C412.828 59.8018 412.635 60.2021 412.635 60.6416C412.635 61.348 413.154 61.82 414.192 62.0576C415.234 62.2985 416.261 62.5264 417.273 62.7412C418.367 63.1807 418.914 63.9863 418.914 65.1582ZM424.192 66.9014C424.192 67.2594 424.065 67.5589 423.812 67.7998C423.561 68.0407 423.255 68.1611 422.894 68.1611C422.532 68.1611 422.231 68.0342 421.99 67.7803C421.753 67.5264 421.634 67.2204 421.634 66.8623C421.634 66.501 421.761 66.1999 422.015 65.959C422.269 65.7181 422.575 65.5977 422.933 65.5977C423.294 65.5977 423.593 65.7246 423.831 65.9785C424.072 66.2324 424.192 66.54 424.192 66.9014ZM430.872 66.9014C430.872 67.2594 430.745 67.5589 430.491 67.7998C430.241 68.0407 429.935 68.1611 429.573 68.1611C429.212 68.1611 428.911 68.0342 428.67 67.7803C428.432 67.5264 428.313 67.2204 428.313 66.8623C428.313 66.501 428.44 66.1999 428.694 65.959C428.948 65.7181 429.254 65.5977 429.612 65.5977C429.974 65.5977 430.273 65.7246 430.511 65.9785C430.752 66.2324 430.872 66.54 430.872 66.9014ZM437.552 66.9014C437.552 67.2594 437.425 67.5589 437.171 67.7998C436.92 68.0407 436.614 68.1611 436.253 68.1611C435.892 68.1611 435.59 68.0342 435.35 67.7803C435.112 67.5264 434.993 67.2204 434.993 66.8623C434.993 66.501 435.12 66.1999 435.374 65.959C435.628 65.7181 435.934 65.5977 436.292 65.5977C436.653 65.5977 436.953 65.7246 437.19 65.9785C437.431 66.2324 437.552 66.54 437.552 66.9014Z" fill="black"/>
<path fill-rule="evenodd" clip-rule="evenodd" d="M67.374 42.1232C75.2494 38.0874 91 27.3422 91 16.6475C91 3.27905 84.6101 0 78.7246 0C73.2633 0 68.1639 4.85055 67.4573 6.42301C66.4948 4.70009 61.5542 0.168341 56.2754 0.168341C50.3899 0.168341 44 3.44739 44 16.8158C44 27.5106 59.4984 38.0876 67.3737 42.1234C67.3738 42.1225 67.374 42.1217 67.3741 42.1208C67.3741 42.1216 67.374 42.1224 67.374 42.1232Z" fill="#D72428"/>
</svg>
