<svg width="94" height="72" viewBox="0 0 94 72" fill="none" xmlns="http://www.w3.org/2000/svg">
<path d="M51.3962 44.6656C42.3528 48.6243 30.2011 45.7342 25.2556 43.7944C24.8125 37.3834 27.5951 22.9555 42.2708 16.5312C56.9465 10.107 67.5402 21.4408 71.0026 27.9107C71.0026 27.9107 62.7005 39.7172 51.3962 44.6656Z" fill="#77FFC6"/>
<path d="M57.1631 53.6773C44.1621 59.3685 32.3946 60.6257 23.5563 60.1217C16.3333 59.7098 13.8629 51.7834 18.1583 45.9618C21.6254 41.2631 28.3088 39.9945 34.1268 40.495C38.6336 40.8828 44.1822 40.338 50.1754 37.7145C56.4876 34.9513 61.0216 31.6061 64.0908 28.6121C67.5826 25.2059 72.4357 22.5454 77.2584 23.2778C83.3025 24.1957 86.9253 30.0189 83.1603 34.8354C78.4975 40.8004 70.3692 47.8963 57.1631 53.6773Z" fill="#4D34C1"/>
<ellipse cx="28.7271" cy="50.6512" rx="3.63692" ry="3.44566" transform="rotate(-23.6414 28.7271 50.6512)" fill="#C77DFF"/>
<ellipse cx="43.1734" cy="48.409" rx="3.63692" ry="3.44566" transform="rotate(-23.6414 43.1734 48.409)" fill="#C77DFF"/>
<ellipse cx="60.0396" cy="40.8113" rx="3.63692" ry="3.44566" transform="rotate(-23.6414 60.0396 40.8113)" fill="#C77DFF"/>
<ellipse cx="71.7212" cy="32.2605" rx="3.63692" ry="3.44566" transform="rotate(-23.6414 71.7212 32.2605)" fill="#C77DFF"/>
</svg>
